<svg xmlns="http://www.w3.org/2000/svg" xmlns:xlink="http://www.w3.org/1999/xlink" viewBox="3759 1629 147 63"><defs><style>.a,.d,.f{fill:none;}.b{clip-path:url(#c);}.c{clip-path:url(#a);}.d,.f{stroke:#000;stroke-linecap:round;stroke-linejoin:round;stroke-width:3px;}.e{font-size:23px;font-family:KoreanSWGI3-R, KoreanSWGI3R;}.f{stroke-miterlimit:10;}</style><clipPath id="a"><path class="a" d="M0-32.315H67.818V7.14H0Z" transform="translate(0 32.315)"/></clipPath><clipPath id="c"><rect x="3759" y="1629" width="147" height="63"/></clipPath></defs><g id="b" class="b"><g transform="translate(3768 1641.859)"><g class="c" transform="translate(0 0)"><g transform="translate(1.373 1.373)"><path class="a" d="M11.593,2.759l-9.3-6.3V-4.7A7.788,7.788,0,0,0-5.5-12.487H-44.678A7.788,7.788,0,0,0-52.465-4.7V16.433a7.789,7.789,0,0,0,7.787,7.79H-5.5a7.789,7.789,0,0,0,7.787-7.79v-2.48l9.3-6.3a3.464,3.464,0,0,0,0-4.895" transform="translate(52.465 12.487)"/></g><g transform="translate(1.373 1.373)"><path class="d" d="M11.593,2.759l-9.3-6.3V-4.7A7.788,7.788,0,0,0-5.5-12.487H-44.678A7.788,7.788,0,0,0-52.465-4.7V16.433a7.789,7.789,0,0,0,7.787,7.79H-5.5a7.789,7.789,0,0,0,7.787-7.79v-2.48l9.3-6.3A3.464,3.464,0,0,0,11.593,2.759Z" transform="translate(52.465 12.487)"/></g></g></g><text class="e" transform="translate(3796.354 1668.633)"><tspan x="-22.31" y="0">호출</tspan></text><g transform="translate(3832 1628)"><g transform="translate(7.047 8.659)"><g transform="translate(0 39.053)"><path class="f" d="M11.08,42.941c-3.89,0-4.737,2.695-4.737,4.737H56.779c0-2.042-.847-4.737-4.737-4.737H11.08" transform="translate(-6.343 -42.941)"/></g><path class="f" d="M51.59,39.995c-.068-12.759-9.335-20.641-20.762-20.641s-20.7,7.882-20.764,20.641" transform="translate(-5.929 -6.509)"/><circle class="f" cx="3.225" cy="3.225" r="3.225" transform="translate(21.674 5.253)"/><path class="f" d="M52.546,26.089A20.667,20.667,0,0,0,36.521,12.962" transform="translate(-2.989 -7.219)"/><path class="f" d="M57.888,24.565A26.5,26.5,0,0,0,37.428,7.793" transform="translate(-2.889 -7.793)"/><line class="f" x1="40.962" transform="translate(4.699 33.486)"/></g><rect class="a" width="70" height="70"/></g></g></svg>