<?xml version="1.0" encoding="utf-8"?>
<!-- Generator: Adobe Illustrator 16.0.0, SVG Export Plug-In . SVG Version: 6.00 Build 0)  -->
<!DOCTYPE svg PUBLIC "-//W3C//DTD SVG 1.1//EN" "http://www.w3.org/Graphics/SVG/1.1/DTD/svg11.dtd">
<svg version="1.1" id="Layer_1" xmlns="http://www.w3.org/2000/svg" xmlns:xlink="http://www.w3.org/1999/xlink" x="0px" y="0px"
	 width="36px" height="36px" viewBox="0 0 36 36" enable-background="new 0 0 36 36" xml:space="preserve">
<path fill="none" d="M0,0h36v36H0V0z"/>
<path fill="none" d="M0,0h36v36H0V0z"/>
<path fill="none" stroke="#FFFFFF" stroke-width="1.1811" stroke-linecap="round" stroke-linejoin="round" stroke-miterlimit="10" d="
	M29.26,24.055c-0.039-6.669-5.396-11.931-12.001-11.931S5.296,17.385,5.256,24.055H29.26z"/>
<circle fill="none" stroke="#FFFFFF" stroke-width="1.1671" stroke-linecap="round" stroke-linejoin="round" stroke-miterlimit="10" cx="17.258" cy="9.937" r="1.864"/>
<path fill="none" stroke="#FFFFFF" stroke-width="1.1671" stroke-linecap="round" stroke-linejoin="round" stroke-miterlimit="10" d="
	M31.511,15.945c-1.481-3.947-4.992-6.901-9.263-7.588"/>
<path fill="none" stroke="#FFFFFF" stroke-width="1.1671" stroke-linecap="round" stroke-linejoin="round" stroke-miterlimit="10" d="
	M34.656,14.731c-1.9-5.034-6.378-8.802-11.826-9.695"/>
<path fill="none" stroke="#FFFFFF" stroke-width="1.1811" stroke-linecap="round" stroke-linejoin="round" stroke-miterlimit="10" d="
	M32.072,28.293v-0.411c0-0.95-0.734-1.742-1.684-1.742H4.257c-0.949,0-1.712,0.792-1.712,1.742v0.411H32.072z"/>
</svg>
