<svg xmlns="http://www.w3.org/2000/svg" xmlns:xlink="http://www.w3.org/1999/xlink" viewBox="4214 1629 45 45"><defs><style>.a{clip-path:url(#b);}.b,.c,.d{fill:none;}.b,.c{stroke:#8a8a8a;stroke-linecap:round;stroke-linejoin:round;stroke-miterlimit:10;stroke-width:3px;}.c{fill-rule:evenodd;}</style><clipPath id="b"><rect x="4214" y="1629" width="45" height="45"/></clipPath></defs><g id="a" class="a"><g transform="translate(4214 1629)"><path class="b" d="M12.116,44.9h.977a1.431,1.431,0,0,0,1.432-1.432V27.109a1.432,1.432,0,0,0-1.432-1.433H11.916a1.434,1.434,0,0,0-1.423,1.41V43.563A1.5,1.5,0,0,0,12.116,44.9Z" transform="translate(-2.623 -6.419)"/><path class="c" d="M15.869,22.747c.555-.049,2.9-.294,3.3-.667a37.416,37.416,0,0,0,2.855-3.024c1.112-1.288,2.149-2.638,3.242-3.942a9.823,9.823,0,0,0,1.644-4.092c.231-.876.468-1.754.75-2.614a.952.952,0,0,1,1.066-.646c2.068.056,3.117,1.207,3.315,3.634a8.318,8.318,0,0,1-.727,3.914c-.444,1.06-.9,2.117-1.277,3.2-.392,1.118-.263,1.26.88,1.26,2.254,0,4.508-.015,6.762.007A3.261,3.261,0,0,1,41.1,22.708a3.7,3.7,0,0,1-1.389,3.256,14.686,14.686,0,0,1,.369,2.88,7.605,7.605,0,0,1-.8,2.022,1.28,1.28,0,0,0-.123.754,3.841,3.841,0,0,1-.964,3.975,1.337,1.337,0,0,0-.268.736,19.894,19.894,0,0,1-.152,2.065,3.019,3.019,0,0,1-2.707,2.535,35.694,35.694,0,0,1-5.8.127c-3.289-.19-6.319-1.479-9.413-2.481a22.426,22.426,0,0,0-3.971-.414" transform="translate(-3.967 -1.94)"/><rect class="d" width="45" height="45"/></g></g></svg>