<svg xmlns="http://www.w3.org/2000/svg" xmlns:xlink="http://www.w3.org/1999/xlink" viewBox="0 0 50 50">
  <defs>
    <style>
      .cls-1 {
        fill: none;
      }

      .cls-2 {
        clip-path: url(#clip-매장1);
      }

      .cls-3 {
        clip-path: url(#clip-path);
      }

      .cls-4 {
        fill: url(#linear-gradient);
      }

      .cls-5 {
        clip-path: url(#clip-path-2);
      }

      .cls-6 {
        fill: url(#linear-gradient-2);
      }

      .cls-7 {
        clip-path: url(#clip-path-3);
      }

      .cls-8 {
        fill: url(#linear-gradient-3);
      }

      .cls-9 {
        clip-path: url(#clip-path-4);
      }

      .cls-10 {
        fill: #0856c3;
      }
    </style>
    <clipPath id="clip-path">
      <path id="패스_1031" data-name="패스 1031" class="cls-1" d="M164.063-335.938v11.047a4.249,4.249,0,0,0,4.249,4.249h0a4.249,4.249,0,0,0,4.249-4.249h0v-11.047Z" transform="translate(-164.063 335.938)"/>
    </clipPath>
    <linearGradient id="linear-gradient" x1="0.042" y1="0.5" x2="0.436" y2="0.5" gradientUnits="objectBoundingBox">
      <stop offset="0" stop-color="#6dc6ff"/>
      <stop offset="0.1" stop-color="#79c4ff"/>
      <stop offset="0.2" stop-color="#85c1ff"/>
      <stop offset="0.3" stop-color="#91beff"/>
      <stop offset="0.4" stop-color="#9dbbff"/>
      <stop offset="0.5" stop-color="#a9b8ff"/>
      <stop offset="0.6" stop-color="#b5b6ff"/>
      <stop offset="0.7" stop-color="#c1b3ff"/>
      <stop offset="0.8" stop-color="#cdb0ff"/>
      <stop offset="0.9" stop-color="#d9adff"/>
      <stop offset="1" stop-color="#e6aaff"/>
    </linearGradient>
    <clipPath id="clip-path-2">
      <path id="패스_1033" data-name="패스 1033" class="cls-1" d="M320.313-335.938v11.047a4.253,4.253,0,0,0,5.105,4.165h0a4.369,4.369,0,0,0,3.392-4.347h0v-.044a6.812,6.812,0,0,0-.609-2.814h0l-2.734-6.014a3.4,3.4,0,0,0-3.094-1.992h-2.061Z" transform="translate(-320.313 335.938)"/>
    </clipPath>
    <linearGradient id="linear-gradient-2" x1="0.042" y1="0.885" x2="0.436" y2="0.885" xlink:href="#linear-gradient"/>
    <clipPath id="clip-path-3">
      <path id="패스_1035" data-name="패스 1035" class="cls-1" d="M14.25-335.938a3.4,3.4,0,0,0-3.094,1.992h0l-2.734,6.014a6.814,6.814,0,0,0-.609,2.815h0v.044a4.372,4.372,0,0,0,3.831,4.411h0a4.25,4.25,0,0,0,4.666-4.229h0v-11.047Z" transform="translate(-7.813 335.938)"/>
    </clipPath>
    <linearGradient id="linear-gradient-3" x1="0.042" y1="0.115" x2="0.436" y2="0.115" xlink:href="#linear-gradient"/>
    <clipPath id="clip-path-4">
      <path id="패스_1039" data-name="패스 1039" class="cls-1" d="M0-343.75H44.187v37.389H0Z" transform="translate(0 343.75)"/>
    </clipPath>
    <clipPath id="clip-매장1">
      <rect width="50" height="50"/>
    </clipPath>
  </defs>
  <g id="매장1" class="cls-2">
    <g id="그룹_843" data-name="그룹 843" transform="translate(3.155 7)">
      <g id="그룹_774" data-name="그룹 774" class="cls-3" transform="translate(17.845 0.85)">
        <g id="그룹_773" data-name="그룹 773" transform="translate(26.342 -0.85) rotate(90)">
          <path id="패스_1030" data-name="패스 1030" class="cls-4" d="M0,44.187V0H37.389V44.187Z" transform="translate(0 0)"/>
        </g>
      </g>
      <g id="그룹_776" data-name="그룹 776" class="cls-5" transform="translate(34.84 0.85)">
        <g id="그룹_775" data-name="그룹 775" transform="translate(9.347 -0.85) rotate(90)">
          <path id="패스_1032" data-name="패스 1032" class="cls-6" d="M0,44.187V0H37.389V44.187Z" transform="translate(0 0)"/>
        </g>
      </g>
      <g id="그룹_778" data-name="그룹 778" class="cls-7" transform="translate(0.85 0.85)">
        <g id="그룹_777" data-name="그룹 777" transform="translate(43.338 -0.85) rotate(90)">
          <path id="패스_1034" data-name="패스 1034" class="cls-8" d="M0,44.187V0H37.389V44.187Z" transform="translate(0 0)"/>
        </g>
      </g>
      <g id="그룹_780" data-name="그룹 780" class="cls-9" transform="translate(0 0)">
        <path id="패스_1036" data-name="패스 1036" class="cls-10" d="M140.625-78.125h1.7v3.4h-1.7Z" transform="translate(-125.329 107.017)"/>
        <path id="패스_1037" data-name="패스 1037" class="cls-10" d="M204.824-154.55h11.9v6.8h-11.9Zm0,8.5h11.9a1.7,1.7,0,0,0,1.7-1.7v-6.8a1.7,1.7,0,0,0-1.7-1.7h-11.9a1.7,1.7,0,0,0-1.7,1.7v6.8a1.7,1.7,0,0,0,1.7,1.7" transform="translate(-181.031 176.644)"/>
        <g id="그룹_779" data-name="그룹 779">
          <path id="패스_1038" data-name="패스 1038" class="cls-10" d="M-167.106-292.435v-1.7h18.695v.85a.85.85,0,0,1-.85.85Zm-8.5-10.2h6.8v10.2h-6.8Zm0,10.2-5.948,0a.85.85,0,0,1-.85-.85v-.85h5.1v1.7Zm-4.249-24.02a5.893,5.893,0,0,1,.534-2.462l2.734-6.015a2.552,2.552,0,0,1,2.32-1.494H-179v10.2a3.411,3.411,0,0,1-1.113,2.516,3.391,3.391,0,0,1-2.623.867,3.54,3.54,0,0,1-3.062-3.611m15.3-9.97v10.2a3.4,3.4,0,0,1-3.4,3.4,3.4,3.4,0,0,1-3.4-3.4v-10.2Zm8.5,10.2a3.4,3.4,0,0,1-3.4,3.4,3.4,3.4,0,0,1-3.4-3.4v-10.2h6.8Zm8.5-10.2v10.2a3.4,3.4,0,0,1-3.4,3.4,3.4,3.4,0,0,1-3.4-3.4v-10.2Zm5.23,1.495,2.734,6.014a5.948,5.948,0,0,1,.534,2.506,3.5,3.5,0,0,1-2.706,3.514,3.38,3.38,0,0,1-2.852-.705,3.39,3.39,0,0,1-1.241-2.626v-10.2h1.211a2.552,2.552,0,0,1,2.32,1.495m-20.526,17.2h-6.8a1.7,1.7,0,0,0-1.7,1.7v10.2h-5.1v-15.3a5.121,5.121,0,0,0,3.429-1.323,5.065,5.065,0,0,0,.817-.964,5.1,5.1,0,0,0,4.251,2.289,5.1,5.1,0,0,0,4.249-2.286,5.094,5.094,0,0,0,4.249,2.286,5.1,5.1,0,0,0,4.249-2.286,5.094,5.094,0,0,0,4.249,2.286,5.1,5.1,0,0,0,4.25-2.288,5.135,5.135,0,0,0,1.009,1.128,5.1,5.1,0,0,0,3.239,1.16v15.3h-18.695v-10.2a1.7,1.7,0,0,0-1.7-1.7m0,3.4h-6.8v-1.7h6.8Zm22.094,11.047V-311.43a5.263,5.263,0,0,0,3.4-5.025,7.572,7.572,0,0,0-.687-3.166l-2.734-6.013a4.254,4.254,0,0,0-3.866-2.491h-29.614a4.255,4.255,0,0,0-3.867,2.491l-2.734,6.014a7.637,7.637,0,0,0-.686,3.209,5.311,5.311,0,0,0,3.4,4.977v18.149a2.52,2.52,0,0,0,.156.85H-187.5v1.7h44.187v-1.7h-3.555a2.52,2.52,0,0,0,.156-.85" transform="translate(187.5 328.125)"/>
        </g>
      </g>
    </g>
  </g>
</svg>
