<svg xmlns="http://www.w3.org/2000/svg" xmlns:xlink="http://www.w3.org/1999/xlink" viewBox="0 0 50 50">
  <defs>
    <style>
      .cls-1 {
        fill: none;
      }

      .cls-2 {
        clip-path: url(#clip-매장2);
      }

      .cls-3 {
        fill: #a3a3a3;
      }

      .cls-4 {
        clip-path: url(#clip-path);
      }
    </style>
    <clipPath id="clip-path">
      <path id="패스_1015" data-name="패스 1015" class="cls-1" d="M0-343.75H44.185v37.387H0Z" transform="translate(0 343.75)"/>
    </clipPath>
    <clipPath id="clip-매장2">
      <rect width="50" height="50"/>
    </clipPath>
  </defs>
  <g id="매장2" class="cls-2">
    <g id="그룹_840" data-name="그룹 840" transform="translate(2.957 7)">
      <path id="패스_1012" data-name="패스 1012" class="cls-3" d="M140.625-78.125h1.7v3.4h-1.7Z" transform="translate(-125.33 107.015)"/>
      <g id="그룹_753" data-name="그룹 753" class="cls-4" transform="translate(0 0)">
        <path id="패스_1013" data-name="패스 1013" class="cls-3" d="M204.824-154.551h11.9v6.8h-11.9Zm0,8.5h11.9a1.7,1.7,0,0,0,1.7-1.7v-6.8a1.7,1.7,0,0,0-1.7-1.7h-11.9a1.7,1.7,0,0,0-1.7,1.7v6.8a1.7,1.7,0,0,0,1.7,1.7" transform="translate(-181.033 176.643)"/>
        <g id="그룹_752" data-name="그룹 752">
          <path id="패스_1014" data-name="패스 1014" class="cls-3" d="M-167.107-292.437v-1.7h18.694v.85a.85.85,0,0,1-.85.85Zm-8.5-10.2h6.8v10.2h-6.8Zm0,10.2-5.948,0a.85.85,0,0,1-.85-.85v-.85h5.1v1.7Zm-4.249-24.019a5.893,5.893,0,0,1,.534-2.462l2.734-6.014a2.552,2.552,0,0,1,2.32-1.494H-179v10.2a3.41,3.41,0,0,1-1.113,2.516,3.391,3.391,0,0,1-2.623.868,3.54,3.54,0,0,1-3.061-3.61m15.295-9.97v10.2a3.4,3.4,0,0,1-3.4,3.4,3.4,3.4,0,0,1-3.4-3.4v-10.2Zm8.5,10.2a3.4,3.4,0,0,1-3.4,3.4,3.4,3.4,0,0,1-3.4-3.4v-10.2h6.8Zm8.5-10.2v10.2a3.4,3.4,0,0,1-3.4,3.4,3.4,3.4,0,0,1-3.4-3.4v-10.2Zm5.23,1.495,2.733,6.013a5.948,5.948,0,0,1,.534,2.506,3.5,3.5,0,0,1-2.705,3.514,3.38,3.38,0,0,1-2.852-.705,3.39,3.39,0,0,1-1.241-2.626v-10.2h1.211a2.552,2.552,0,0,1,2.32,1.495m-20.525,17.2h-6.8a1.7,1.7,0,0,0-1.7,1.7v10.2h-5.1v-15.3a5.121,5.121,0,0,0,3.429-1.323,5.067,5.067,0,0,0,.817-.964,5.1,5.1,0,0,0,4.251,2.289,5.1,5.1,0,0,0,4.249-2.286,5.093,5.093,0,0,0,4.248,2.286,5.1,5.1,0,0,0,4.249-2.286,5.094,5.094,0,0,0,4.248,2.286,5.094,5.094,0,0,0,4.249-2.288,5.135,5.135,0,0,0,1.009,1.128,5.1,5.1,0,0,0,3.239,1.16v15.3h-18.694v-10.2a1.7,1.7,0,0,0-1.7-1.7m0,3.4h-6.8v-1.7h6.8Zm22.092,11.046v-18.144a5.263,5.263,0,0,0,3.4-5.025,7.572,7.572,0,0,0-.687-3.166l-2.733-6.013a4.253,4.253,0,0,0-3.866-2.49h-29.612a4.255,4.255,0,0,0-3.867,2.49l-2.734,6.013a7.636,7.636,0,0,0-.686,3.209,5.311,5.311,0,0,0,3.4,4.977v18.148a2.52,2.52,0,0,0,.156.85H-187.5v1.7h44.185v-1.7h-3.555a2.52,2.52,0,0,0,.156-.85" transform="translate(187.5 328.125)"/>
        </g>
      </g>
    </g>
  </g>
</svg>
