<svg xmlns="http://www.w3.org/2000/svg" xmlns:xlink="http://www.w3.org/1999/xlink" viewBox="0 0 50 50">
  <defs>
    <style>
      .cls-1 {
        fill: none;
      }

      .cls-2 {
        clip-path: url(#clip-배달2);
      }

      .cls-3 {
        clip-path: url(#clip-path);
      }

      .cls-4 {
        fill: #a3a3a3;
      }
    </style>
    <clipPath id="clip-path">
      <path id="패스_1021" data-name="패스 1021" class="cls-1" d="M0-307.5H44.992v33.445H0Z" transform="translate(0 307.5)"/>
    </clipPath>
    <clipPath id="clip-배달2">
      <rect width="50" height="50"/>
    </clipPath>
  </defs>
  <g id="배달2" class="cls-2">
    <g id="그룹_842" data-name="그룹 842" transform="translate(2.647 9)">
      <g id="그룹_761" data-name="그룹 761" class="cls-3" transform="translate(0 0)">
        <g id="그룹_760" data-name="그룹 760">
          <path id="패스_1020" data-name="패스 1020" class="cls-4" d="M-286.087-126.7h-11.855v-.834a2.217,2.217,0,0,1,2.248-1.994h14.219v2.828h-4.611m8.085,9.825v1.813h-1.8a5.483,5.483,0,0,0-5.4-4.6,5.483,5.483,0,0,0-5.4,4.6h-16.86a5.483,5.483,0,0,0-5.4-4.6,5.483,5.483,0,0,0-5.4,4.6h-.973c.028-2.688.238-3.4,1.521-4.7,1.518-1.534,4.112-1.534,4.965-1.534h2.139a.87.87,0,0,0,.847-.67l2.937-12.435a.87.87,0,0,0-.165-.74.87.87,0,0,0-.682-.33h-2.132a2.477,2.477,0,0,1-2.474-2.474,2.477,2.477,0,0,1,2.474-2.474h4.488v5.819c0,.494-.193,1.933-.4,3.456a60.759,60.759,0,0,0-.654,6.333v.192a5.023,5.023,0,0,0,1.235,3.937c1.531,1.536,4.6,2.252,9.641,2.252a.87.87,0,0,0,.87-.87v-1.677c0-1.914,1.03-3.974,3.292-3.979h5.28c7.68.009,8.069,6.735,8.069,8.085m-7.207,6.417a3.738,3.738,0,0,1-3.734-3.734,3.738,3.738,0,0,1,3.734-3.734,3.738,3.738,0,0,1,3.734,3.734,3.738,3.738,0,0,1-3.734,3.734m-27.669,0a3.738,3.738,0,0,1-3.734-3.734,3.738,3.738,0,0,1,3.734-3.734,3.738,3.738,0,0,1,3.734,3.734,3.738,3.738,0,0,1-3.734,3.734m23.935-28.269H-280a2.037,2.037,0,0,1,2.248,2.248v5.212h-11.2Zm9.209,12.9v-3.7h2.857a.87.87,0,0,0,.87-.87v-6.082A3.737,3.737,0,0,0-280-140.471h-9.818a.87.87,0,0,0-.87.87v8.329h-5.01a3.919,3.919,0,0,0-3.988,3.734v1.7a.87.87,0,0,0,.87.87h3.75a6.186,6.186,0,0,0-1.321,3.979v.8c-3.931-.073-6.465-.655-7.539-1.732a3.481,3.481,0,0,1-.727-2.7v-.2c0-1.344.354-3.982.638-6.1.231-1.719.413-3.077.413-3.687V-137h3.626a.87.87,0,0,0,.87-.87.87.87,0,0,0-.87-.87H-303.6V-141.3a.87.87,0,0,0-.87-.87h-5.359a4.219,4.219,0,0,0-4.215,4.215,4.219,4.219,0,0,0,4.215,4.215h1.032l-2.526,10.695h-1.45c-1.032,0-4.173,0-6.2,2.051-1.93,1.951-2.028,3.27-2.028,6.8a.87.87,0,0,0,.87.87h1.846a5.483,5.483,0,0,0,5.4,4.6,5.483,5.483,0,0,0,5.4-4.6h16.86a5.483,5.483,0,0,0,5.4,4.6,5.483,5.483,0,0,0,5.4-4.6h2.673a.87.87,0,0,0,.87-.87v-2.683a9.751,9.751,0,0,0-3.92-8.195.87.87,0,0,0,.447-.76" transform="translate(321 142.166)"/>
        </g>
      </g>
    </g>
  </g>
</svg>
