<svg xmlns="http://www.w3.org/2000/svg" xmlns:xlink="http://www.w3.org/1999/xlink" viewBox="0 0 50 50">
  <defs>
    <style>
      .cls-1 {
        fill: none;
      }

      .cls-2 {
        clip-path: url(#clip-배달1);
      }

      .cls-3 {
        clip-path: url(#clip-path);
      }

      .cls-4 {
        fill: url(#linear-gradient);
      }

      .cls-5 {
        clip-path: url(#clip-path-2);
      }

      .cls-6 {
        fill: #0856c3;
      }
    </style>
    <clipPath id="clip-path">
      <path id="패스_1041" data-name="패스 1041" class="cls-1" d="M287.331-282.917v8.967h12.852v-6.38a2.588,2.588,0,0,0-2.588-2.588H287.331Z" transform="translate(-287.331 282.917)"/>
    </clipPath>
    <linearGradient id="linear-gradient" x1="0.103" y1="0.163" x2="0.325" y2="0.163" gradientUnits="objectBoundingBox">
      <stop offset="0" stop-color="#6dc6ff"/>
      <stop offset="0.1" stop-color="#79c4ff"/>
      <stop offset="0.2" stop-color="#85c1ff"/>
      <stop offset="0.3" stop-color="#91beff"/>
      <stop offset="0.4" stop-color="#9dbbff"/>
      <stop offset="0.5" stop-color="#a9b8ff"/>
      <stop offset="0.6" stop-color="#b5b6ff"/>
      <stop offset="0.7" stop-color="#c1b3ff"/>
      <stop offset="0.8" stop-color="#cdb0ff"/>
      <stop offset="0.9" stop-color="#d9adff"/>
      <stop offset="1" stop-color="#e6aaff"/>
    </linearGradient>
    <clipPath id="clip-path-2">
      <path id="패스_1043" data-name="패스 1043" class="cls-1" d="M0-307.5H44.989v33.443H0Z" transform="translate(0 307.5)"/>
    </clipPath>
    <clipPath id="clip-배달1">
      <rect width="50" height="50"/>
    </clipPath>
  </defs>
  <g id="배달1" class="cls-2">
    <g id="그룹_841" data-name="그룹 841" transform="translate(2.845 9)">
      <g id="그룹_783" data-name="그룹 783" class="cls-3" transform="translate(31.249 2.674)">
        <g id="그룹_782" data-name="그룹 782" transform="translate(13.74 -2.674) rotate(90)">
          <path id="패스_1040" data-name="패스 1040" class="cls-4" d="M0,44.989V0H33.443V44.989Z" transform="translate(0 0)"/>
        </g>
      </g>
      <g id="그룹_785" data-name="그룹 785" class="cls-5" transform="translate(0 0)">
        <g id="그룹_784" data-name="그룹 784">
          <path id="패스_1042" data-name="패스 1042" class="cls-6" d="M-286.089-126.7h-11.854v-.834a2.217,2.217,0,0,1,2.248-1.994h14.218v2.828h-4.611M-278-116.88v1.813h-1.8a5.482,5.482,0,0,0-5.4-4.6,5.482,5.482,0,0,0-5.4,4.6h-16.859a5.482,5.482,0,0,0-5.4-4.6,5.482,5.482,0,0,0-5.4,4.6h-.973c.028-2.688.238-3.4,1.521-4.7,1.518-1.534,4.112-1.534,4.964-1.534h2.139a.87.87,0,0,0,.847-.67l2.936-12.434a.87.87,0,0,0-.165-.74.87.87,0,0,0-.682-.33h-2.132a2.477,2.477,0,0,1-2.474-2.474,2.477,2.477,0,0,1,2.474-2.474h4.488v5.818c0,.494-.193,1.933-.4,3.455a60.756,60.756,0,0,0-.654,6.333v.192a5.023,5.023,0,0,0,1.235,3.937c1.531,1.536,4.595,2.252,9.641,2.252a.87.87,0,0,0,.87-.87v-1.677c0-1.914,1.03-3.974,3.292-3.979h5.279c7.679.009,8.069,6.735,8.069,8.084m-7.207,6.417a3.738,3.738,0,0,1-3.734-3.734,3.738,3.738,0,0,1,3.734-3.734,3.738,3.738,0,0,1,3.734,3.734,3.738,3.738,0,0,1-3.734,3.734m-27.668,0a3.738,3.738,0,0,1-3.734-3.734,3.738,3.738,0,0,1,3.734-3.734,3.738,3.738,0,0,1,3.734,3.734,3.738,3.738,0,0,1-3.734,3.734m23.934-28.268H-280a2.037,2.037,0,0,1,2.248,2.248v5.211h-11.195Zm9.208,12.9v-3.7h2.857a.87.87,0,0,0,.87-.87v-6.081A3.737,3.737,0,0,0-280-140.471h-9.817a.87.87,0,0,0-.87.87v8.329h-5.01a3.919,3.919,0,0,0-3.988,3.734v1.7a.87.87,0,0,0,.87.87h3.75a6.186,6.186,0,0,0-1.321,3.979v.8c-3.93-.073-6.465-.655-7.539-1.732a3.481,3.481,0,0,1-.727-2.7v-.2c0-1.344.354-3.981.638-6.1.231-1.719.413-3.077.413-3.687V-137h3.625a.87.87,0,0,0,.87-.87.87.87,0,0,0-.87-.87H-303.6V-141.3a.87.87,0,0,0-.87-.87h-5.358a4.219,4.219,0,0,0-4.214,4.214,4.219,4.219,0,0,0,4.214,4.214h1.032l-2.526,10.694h-1.45c-1.032,0-4.173,0-6.2,2.051-1.93,1.951-2.028,3.269-2.028,6.795a.87.87,0,0,0,.87.87h1.846a5.482,5.482,0,0,0,5.4,4.6,5.482,5.482,0,0,0,5.4-4.6h16.859a5.482,5.482,0,0,0,5.4,4.6,5.482,5.482,0,0,0,5.4-4.6h2.673a.87.87,0,0,0,.87-.87v-2.683a9.75,9.75,0,0,0-3.92-8.194.869.869,0,0,0,.447-.76" transform="translate(321 142.166)"/>
        </g>
      </g>
    </g>
  </g>
</svg>
