<svg xmlns="http://www.w3.org/2000/svg" xmlns:xlink="http://www.w3.org/1999/xlink" viewBox="0 0 63 63">
  <defs>
    <style>
      .cls-1 {
        clip-path: url(#clip-이벤트);
      }

      .cls-2, .cls-3 {
        fill: none;
      }

      .cls-3 {
        stroke: #0856c3;
        stroke-linecap: round;
        stroke-width: 3px;
      }
    </style>
    <clipPath id="clip-이벤트">
      <rect width="63" height="63"/>
    </clipPath>
  </defs>
  <g id="이벤트" class="cls-1">
    <rect id="사각형_387" data-name="사각형 387" class="cls-2" width="63" height="63"/>
    <g id="그룹_518" data-name="그룹 518" transform="translate(-52 -243)">
      <g id="그룹_515" data-name="그룹 515" transform="translate(826 433)">
        <g id="그룹_501" data-name="그룹 501" transform="translate(-732.853 -179)">
          <path id="패스_852" data-name="패스 852" class="cls-3" d="M-8.754-39.464a3.071,3.071,0,0,1-3.071,3.071h-.1A3.071,3.071,0,0,1-15-39.464v-25.09a3.071,3.071,0,0,1,3.071-3.071h.1a3.071,3.071,0,0,1,3.071,3.071Z" transform="translate(15 67.625)"/>
        </g>
        <g id="그룹_502" data-name="그룹 502" transform="translate(-764 -177.139)">
          <path id="패스_853" data-name="패스 853" class="cls-3" d="M-50.755,0C-57.7,7-67.464,7.3-67.464,7.3H-78.5a3.278,3.278,0,0,0-3.438,3.175V16.7c0,1.847,1.629,3.926,3.438,3.926h11.04s9.76-.346,16.709,6.656" transform="translate(81.942)"/>
        </g>
        <g id="그룹_503" data-name="그룹 503" transform="translate(-748.592 -169.839)">
          <path id="패스_854" data-name="패스 854" class="cls-3" d="M0,0V12.493"/>
        </g>
        <g id="그룹_504" data-name="그룹 504" transform="translate(-758.337 -163.176)">
          <path id="패스_855" data-name="패스 855" class="cls-3" d="M0,0H3.748"/>
        </g>
        <g id="그룹_505" data-name="그룹 505" transform="translate(-718.278 -163.176)">
          <path id="패스_856" data-name="패스 856" class="cls-3" d="M0,0H3.748"/>
        </g>
        <g id="그룹_506" data-name="그룹 506" transform="translate(-721.06 -172.413)">
          <path id="패스_857" data-name="패스 857" class="cls-3" d="M0-3.713l2.65-2.65" transform="translate(0 6.363)"/>
        </g>
        <g id="그룹_507" data-name="그룹 507" transform="translate(-721.06 -156.589)">
          <path id="패스_858" data-name="패스 858" class="cls-3" d="M0,0,2.65,2.65"/>
        </g>
        <g id="그룹_508" data-name="그룹 508" transform="translate(-758.17 -152.68)">
          <path id="패스_859" data-name="패스 859" class="cls-3" d="M0-3.134v15a3.123,3.123,0,1,0,6.246,0V-3"/>
        </g>
        <g id="그룹_509" data-name="그룹 509" transform="translate(-750.674 -155.264)">
          <path id="패스_860" data-name="패스 860" class="cls-3" d="M-7.586,0V3.1A2.318,2.318,0,0,1-9.9,5.414H-13" transform="translate(13)"/>
        </g>
      </g>
      <rect id="사각형_675" data-name="사각형 675" class="cls-2" width="68" height="68" transform="translate(50 241)"/>
    </g>
  </g>
</svg>
