<svg xmlns="http://www.w3.org/2000/svg" xmlns:xlink="http://www.w3.org/1999/xlink" viewBox="0 0 191 264">
  <defs>
    <style>
      .cls-1 {
        fill: none;
      }

      .cls-2 {
        clip-path: url(#clip-이벤트);
      }

      .cls-3 {
        fill: #fff;
      }

      .cls-4 {
        clip-path: url(#clip-path);
      }

      .cls-5 {
        fill: url(#linear-gradient);
      }

      .cls-6 {
        clip-path: url(#clip-path-2);
      }

      .cls-7 {
        fill: url(#linear-gradient-2);
      }

      .cls-8 {
        clip-path: url(#clip-path-3);
      }
    </style>
    <clipPath id="clip-path">
      <path id="패스_987" data-name="패스 987" class="cls-1" d="M40.891-126.448a12.423,12.423,0,0,0,12.422,12.422h0a12.421,12.421,0,0,0,12.421-12.422h0a12.42,12.42,0,0,0-12.421-12.421h0a12.421,12.421,0,0,0-12.422,12.421" transform="translate(-40.891 138.869)"/>
    </clipPath>
    <linearGradient id="linear-gradient" x1="0.419" y1="0.094" x2="0.582" y2="0.094" gradientUnits="objectBoundingBox">
      <stop offset="0" stop-color="#6dc6ff"/>
      <stop offset="0.1" stop-color="#79c4ff"/>
      <stop offset="0.2" stop-color="#85c1ff"/>
      <stop offset="0.3" stop-color="#91beff"/>
      <stop offset="0.4" stop-color="#9dbbff"/>
      <stop offset="0.5" stop-color="#a9b8ff"/>
      <stop offset="0.6" stop-color="#b5b6ff"/>
      <stop offset="0.7" stop-color="#c1b3ff"/>
      <stop offset="0.8" stop-color="#cdb0ff"/>
      <stop offset="0.9" stop-color="#d9adff"/>
      <stop offset="1" stop-color="#e6aaff"/>
    </linearGradient>
    <clipPath id="clip-path-2">
      <path id="패스_989" data-name="패스 989" class="cls-1" d="M75.957-144.385a21.022,21.022,0,0,0-21,21h0a20.993,20.993,0,0,0,10.55,18.19h0L48.089-51.549c0,.009,0,.017-.008.026h0L12.931,56.733H4.315A4.314,4.314,0,0,0,0,61.047H0V75.809a4.314,4.314,0,0,0,4.315,4.315H147.591a4.314,4.314,0,0,0,4.313-4.315h0V61.047a4.313,4.313,0,0,0-4.313-4.313h-8.613L86.4-105.2a21.134,21.134,0,0,0,8.036-8.236h0c5.791,7.691,15.318,19.1,24.049,23.86h0a4.294,4.294,0,0,0,2.06.527h0a4.314,4.314,0,0,0,3.794-2.25h0a4.316,4.316,0,0,0-1.724-5.854h0c-5.2-2.835-11.024-8.858-15.876-14.651h0c7.748,2.407,17.182,3.443,25.991-.67h0a4.317,4.317,0,0,0,2.085-5.735h0a4.317,4.317,0,0,0-5.738-2.085h0c-12.206,5.7-27.345-2.486-32.28-5.534h0A21.017,21.017,0,0,0,75.957-144.385Zm-12.371,21a12.387,12.387,0,0,1,12.371-12.37h0a12.384,12.384,0,0,1,12.366,12.37h0a12.383,12.383,0,0,1-12.366,12.371h0a12.386,12.386,0,0,1-12.371-12.371M78.2-102.512l10.779,33.2a18.233,18.233,0,0,0-12.561,17.3h0A18.227,18.227,0,0,0,94.624-33.809h0a18.176,18.176,0,0,0,5.6-.875h0l16.613,51.168A18.319,18.319,0,0,0,104.513,33.7h0A18.228,18.228,0,0,0,122.723,51.9h0a18.219,18.219,0,0,0,5.352-.8h0l1.83,5.634H22.005l4.612-14.2a18.337,18.337,0,0,0,3.348.337h0a18.227,18.227,0,0,0,18.2-18.214h0A18.14,18.14,0,0,0,37.763,8.2h0l9.152-28.186A18.224,18.224,0,0,0,63.583-38.122h0a18.193,18.193,0,0,0-6.319-13.736h0L73.71-102.512a21.059,21.059,0,0,0,2.247.124h0a20.956,20.956,0,0,0,2.244-.124m6.848,50.495a9.59,9.59,0,0,1,6.594-9.092h0l5.915,18.215a9.554,9.554,0,0,1-2.934.459h0a9.59,9.59,0,0,1-9.575-9.581M54.087-42.074a9.559,9.559,0,0,1,.869,3.951h0a9.59,9.59,0,0,1-4.856,8.33h0ZM29.321,34.2,35.048,16.56a9.522,9.522,0,0,1,4.489,8.092h0a9.591,9.591,0,0,1-9.572,9.586h0c-.216,0-.429-.023-.644-.037m83.819-.5a9.638,9.638,0,0,1,6.361-9.009h0l5.907,18.193a9.58,9.58,0,0,1-2.685.393h0A9.592,9.592,0,0,1,113.14,33.7m22.7,31.671c.017,0,.034-.006.05-.006h7.384V71.5H8.628V65.362h7.387c.016,0,.033.006.05.006H135.844Z" transform="translate(0 144.385)"/>
    </clipPath>
    <linearGradient id="linear-gradient-2" x1="-0.001" y1="0.5" x2="0.995" y2="0.5" gradientUnits="objectBoundingBox">
      <stop offset="0" stop-color="#1a6dff"/>
      <stop offset="0.1" stop-color="#2b65ff"/>
      <stop offset="0.2" stop-color="#3c5dff"/>
      <stop offset="0.3" stop-color="#4e56ff"/>
      <stop offset="0.4" stop-color="#5f4eff"/>
      <stop offset="0.5" stop-color="#7147ff"/>
      <stop offset="0.6" stop-color="#823fff"/>
      <stop offset="0.7" stop-color="#9338ff"/>
      <stop offset="0.8" stop-color="#a530ff"/>
      <stop offset="0.9" stop-color="#b629ff"/>
      <stop offset="1" stop-color="#c821ff"/>
    </linearGradient>
    <clipPath id="clip-path-3">
      <path id="패스_991" data-name="패스 991" class="cls-1" d="M37.139-42.958A18.23,18.23,0,0,0,55.347-24.747h0a18.227,18.227,0,0,0,18.2-18.211h0a18.224,18.224,0,0,0-18.2-18.207h0A18.227,18.227,0,0,0,37.139-42.958m8.628,0a9.59,9.59,0,0,1,9.58-9.578h0a9.587,9.587,0,0,1,9.574,9.578h0a9.589,9.589,0,0,1-9.574,9.583h0a9.592,9.592,0,0,1-9.58-9.583" transform="translate(-37.139 61.165)"/>
    </clipPath>
    <clipPath id="clip-이벤트">
      <rect width="191" height="264"/>
    </clipPath>
  </defs>
  <g id="이벤트" class="cls-2">
    <g id="그룹_661" data-name="그룹 661" transform="translate(18.894 14)">
      <g id="그룹_649" data-name="그룹 649" transform="translate(5.966 23.484)">
        <path id="패스_985" data-name="패스 985" class="cls-3" d="M24.978,0-33.348,182.221H-45.01v14.49h141.5V183H85.6Z" transform="translate(45.01)"/>
      </g>
      <g id="그룹_651" data-name="그룹 651" class="cls-4" transform="translate(63.583 8.577)">
        <g id="그룹_650" data-name="그룹 650" transform="translate(-63.583 -8.577)">
          <path id="패스_986" data-name="패스 986" class="cls-5" d="M-40.892-13.5H111.014V211H-40.892Z" transform="translate(40.892 13.504)"/>
        </g>
      </g>
      <g id="그룹_653" data-name="그룹 653" class="cls-6">
        <g id="그룹_652" data-name="그룹 652" transform="translate(0 0)">
          <path id="패스_988" data-name="패스 988" class="cls-7" d="M0,151.905V0H224.509V151.905Z" transform="translate(151.905 0) rotate(90)"/>
        </g>
      </g>
      <g id="그룹_655" data-name="그룹 655" class="cls-8" transform="translate(57.749 129.402)">
        <g id="그룹_654" data-name="그룹 654" transform="translate(-57.749 -129.402)">
          <path id="패스_990" data-name="패스 990" class="cls-7" d="M0,151.905V0H224.509V151.905Z" transform="translate(151.905 0) rotate(90)"/>
        </g>
      </g>
    </g>
  </g>
</svg>
