<svg xmlns="http://www.w3.org/2000/svg" xmlns:xlink="http://www.w3.org/1999/xlink" viewBox="0 0 121 112">
  <defs>
    <style>
      .cls-1 {
        clip-path: url(#clip-호출);
      }

      .cls-2 {
        fill: #0856c3;
      }

      .cls-3 {
        fill: #fff;
      }

      .cls-4 {
        fill: none;
      }
    </style>
    <clipPath id="clip-호출">
      <rect width="121" height="112"/>
    </clipPath>
  </defs>
  <g id="호출" class="cls-1">
    <path id="사각형_672" data-name="사각형 672" class="cls-2" d="M0,0H121a0,0,0,0,1,0,0V112a0,0,0,0,1,0,0H45A45,45,0,0,1,0,67V0A0,0,0,0,1,0,0Z"/>
    <g id="그룹_489" data-name="그룹 489" transform="translate(15.994 31.789)">
      <path id="패스_843" data-name="패스 843" class="cls-3" d="M-2.467-4.193H11.9a2.993,2.993,0,0,0,1.733-.459A1.564,1.564,0,0,0,14.3-6.028,1.564,1.564,0,0,0,13.637-7.4,2.986,2.986,0,0,0,11.9-7.863H-2.467A2.983,2.983,0,0,0-4.2-7.4a1.561,1.561,0,0,0-.663,1.376A1.561,1.561,0,0,0-4.2-4.652a2.989,2.989,0,0,0,1.733.459M11.9,3.044H-2.467a19.077,19.077,0,0,1-4.74-.561A10.686,10.686,0,0,1-10.978.749a7.942,7.942,0,0,1-2.548-2.828,8.209,8.209,0,0,1-.917-3.949,8.217,8.217,0,0,1,.917-3.95,7.971,7.971,0,0,1,2.548-2.828,11.04,11.04,0,0,1,3.771-1.758,18.328,18.328,0,0,1,4.74-.586H11.9a17.843,17.843,0,0,1,4.663.586,11.661,11.661,0,0,1,3.8,1.758,8.223,8.223,0,0,1,2.574,2.828,8.046,8.046,0,0,1,.943,3.95,8.038,8.038,0,0,1-.943,3.949A8.193,8.193,0,0,1,20.364.749a11.268,11.268,0,0,1-3.8,1.734,18.571,18.571,0,0,1-4.663.561M-14.953-16.985v-7.492H-.378v-3.364H9.2v3.364H24.339v7.492ZM25.766,8.547v8.1H-16.38v-8.1H-.174V4.318h9.53V8.547Z" transform="translate(16.38 27.841)"/>
    </g>
    <g id="그룹_490" data-name="그룹 490" transform="translate(61.86 32.248)">
      <path id="패스_844" data-name="패스 844" class="cls-3" d="M-.434-3.118-2.37-8.571a51.122,51.122,0,0,0,8.1-.738,25.677,25.677,0,0,0,7.288-2.371H-.943v-6.115h14.27v-2.9H22.6v2.9H37.38v6.115H23.926c-.136.136-.262.273-.381.408s-.229.255-.332.357a40.977,40.977,0,0,0,7.543,1.4q4.024.382,8.053.432L37.432-3.423q-2.446,0-5.1-.2t-5.3-.611q-2.65-.408-5.146-1.046A29.561,29.561,0,0,1,17.3-6.837,33.207,33.207,0,0,1,8.612-3.984a49.425,49.425,0,0,1-9.046.866m38.273,22.17v5.759H-.943V12.12H28.665V10.949H-.943V5.189H13.479V3.712H-2.88V-2.2H39.266V3.712H22.194V5.189H37.38V17.778H7.771v1.274Z" transform="translate(2.88 20.699)"/>
    </g>
    <path id="패스_845" data-name="패스 845" class="cls-4" d="M0-112H121V0H0Z" transform="translate(0 111)"/>
  </g>
</svg>
