<?xml version="1.0" encoding="utf-8"?>
<!-- Generator: Adobe Illustrator 22.1.0, SVG Export Plug-In . SVG Version: 6.00 Build 0)  -->
<svg version="1.1" id="Capa_1" xmlns="http://www.w3.org/2000/svg" xmlns:xlink="http://www.w3.org/1999/xlink" x="0px" y="0px"
	 viewBox="0 0 512 512" style="enable-background:new 0 0 512 512;" xml:space="preserve">
<style type="text/css">
	.st0{fill:#0856C3;}
</style>
<g>
	<g>
		<path class="st0" d="M404.7,41.9h-58.4V30c0-16.5-13.5-30-30-30H195.6c-16.5,0-30,13.5-30,30v11.9h-58.4c-24.8,0-45,20.2-45,45
			V467c0,24.8,20.2,45,45,45h297.5c24.8,0,45-20.2,45-45V86.9C449.7,62.1,429.6,41.9,404.7,41.9z M195.6,30h120.8l0,46.8
			c0,0,0,0,0,0H195.6V30z M419.7,467c0,8.3-6.7,15-15,15H107.3c-8.3,0-15-6.7-15-15V173.7h327.5V467z M419.7,143.7H92.3V86.9
			c0-8.3,6.7-15,15-15h58.4v4.9c0,16.5,13.5,30,30,30h120.8c16.5,0,30-13.5,30-30v-4.9h58.4c8.3,0,15,6.7,15,15L419.7,143.7
			L419.7,143.7z"/>
	</g>
</g>
<g>
	<g>
		<path class="st0" d="M289.9,231.9H153.7c-8.3,0-15,6.7-15,15s6.7,15,15,15h136.2c8.3,0,15-6.7,15-15S298.2,231.9,289.9,231.9z"/>
	</g>
</g>
<g>
	<g>
		<path class="st0" d="M289.9,308.2H153.7c-8.3,0-15,6.7-15,15s6.7,15,15,15h136.2c8.3,0,15-6.7,15-15S298.2,308.2,289.9,308.2z"/>
	</g>
</g>
<g>
	<g>
		<path class="st0" d="M289.9,384.6H153.7c-8.3,0-15,6.7-15,15s6.7,15,15,15h136.2c8.3,0,15-6.7,15-15S298.2,384.6,289.9,384.6z"/>
	</g>
</g>
<g>
	<g>
		<path class="st0" d="M357.7,231.9h-18.2c-8.3,0-15,6.7-15,15s6.7,15,15,15h18.2c8.3,0,15-6.7,15-15S366,231.9,357.7,231.9z"/>
	</g>
</g>
<g>
	<g>
		<path class="st0" d="M357.7,308.2h-18.2c-8.3,0-15,6.7-15,15s6.7,15,15,15h18.2c8.3,0,15-6.7,15-15S366,308.2,357.7,308.2z"/>
	</g>
</g>
<g>
	<g>
		<path class="st0" d="M357.7,384.6h-18.2c-8.3,0-15,6.7-15,15s6.7,15,15,15h18.2c8.3,0,15-6.7,15-15S366,384.6,357.7,384.6z"/>
	</g>
</g>
</svg>
