<svg xmlns="http://www.w3.org/2000/svg" xmlns:xlink="http://www.w3.org/1999/xlink" viewBox="0 0 100 100">
  <defs>
    <style>
      .cls-1 {
        clip-path: url(#clip-메시지);
      }

      .cls-2, .cls-3, .cls-4 {
        fill: none;
      }

      .cls-2 {
        stroke: #80ceff;
        stroke-width: 5px;
      }

      .cls-2, .cls-4 {
        stroke-linecap: round;
        stroke-linejoin: round;
      }

      .cls-4 {
        stroke: #000;
        stroke-width: 2px;
      }
    </style>
    <clipPath id="clip-메시지">
      <rect width="100" height="100"/>
    </clipPath>
  </defs>
  <g id="메시지" class="cls-1">
    <g id="그룹_659" data-name="그룹 659" transform="translate(2 -228)">
      <g id="그룹_534" data-name="그룹 534" transform="translate(21.707 258.707)">
        <path id="패스_878" data-name="패스 878" class="cls-2" d="M-25.7,0H-61.429A9.571,9.571,0,0,0-71,9.571V28.8a9.571,9.571,0,0,0,9.571,9.571H-34.4a21.2,21.2,0,0,0,14.962,8.519,21.239,21.239,0,0,1-5.514-8.557,9.566,9.566,0,0,0,8.83-9.533V9.571A9.571,9.571,0,0,0-25.7,0Z" transform="translate(71 0)"/>
      </g>
      <g id="그룹_535" data-name="그룹 535" transform="translate(31.127 274.711)">
        <path id="패스_879" data-name="패스 879" class="cls-2" d="M-3.71-1.855a3.27,3.27,0,0,1-3.27,3.27,3.27,3.27,0,0,1-3.27-3.27,3.27,3.27,0,0,1,3.27-3.27A3.27,3.27,0,0,1-3.71-1.855Z" transform="translate(10.25 5.125)"/>
      </g>
      <g id="그룹_536" data-name="그룹 536" transform="translate(45.873 274.711)">
        <path id="패스_880" data-name="패스 880" class="cls-2" d="M-3.71-1.855a3.27,3.27,0,0,1-3.27,3.27,3.27,3.27,0,0,1-3.27-3.27,3.27,3.27,0,0,1,3.27-3.27A3.27,3.27,0,0,1-3.71-1.855Z" transform="translate(10.25 5.125)"/>
      </g>
      <g id="그룹_537" data-name="그룹 537" transform="translate(60.619 274.711)">
        <path id="패스_881" data-name="패스 881" class="cls-2" d="M-3.71-1.855a3.27,3.27,0,0,1-3.27,3.27,3.27,3.27,0,0,1-3.27-3.27,3.27,3.27,0,0,1,3.27-3.27A3.27,3.27,0,0,1-3.71-1.855Z" transform="translate(10.25 5.125)"/>
      </g>
      <path id="패스_882" data-name="패스 882" class="cls-3" d="M0-75.706H56.286v48.3H0Z" transform="translate(21 333.706)"/>
    </g>
    <g id="그룹_660" data-name="그룹 660" transform="translate(-1 -231)">
      <g id="그룹_534-2" data-name="그룹 534" transform="translate(21.707 258.707)">
        <path id="패스_878-2" data-name="패스 878" class="cls-4" d="M-25.7,0H-61.429A9.571,9.571,0,0,0-71,9.571V28.8a9.571,9.571,0,0,0,9.571,9.571H-34.4a21.2,21.2,0,0,0,14.962,8.519,21.239,21.239,0,0,1-5.514-8.557,9.566,9.566,0,0,0,8.83-9.533V9.571A9.571,9.571,0,0,0-25.7,0Z" transform="translate(71 0)"/>
      </g>
      <g id="그룹_535-2" data-name="그룹 535" transform="translate(31.127 274.711)">
        <path id="패스_879-2" data-name="패스 879" class="cls-4" d="M-3.71-1.855a3.27,3.27,0,0,1-3.27,3.27,3.27,3.27,0,0,1-3.27-3.27,3.27,3.27,0,0,1,3.27-3.27A3.27,3.27,0,0,1-3.71-1.855Z" transform="translate(10.25 5.125)"/>
      </g>
      <g id="그룹_536-2" data-name="그룹 536" transform="translate(45.873 274.711)">
        <path id="패스_880-2" data-name="패스 880" class="cls-4" d="M-3.71-1.855a3.27,3.27,0,0,1-3.27,3.27,3.27,3.27,0,0,1-3.27-3.27,3.27,3.27,0,0,1,3.27-3.27A3.27,3.27,0,0,1-3.71-1.855Z" transform="translate(10.25 5.125)"/>
      </g>
      <g id="그룹_537-2" data-name="그룹 537" transform="translate(60.619 274.711)">
        <path id="패스_881-2" data-name="패스 881" class="cls-4" d="M-3.71-1.855a3.27,3.27,0,0,1-3.27,3.27,3.27,3.27,0,0,1-3.27-3.27,3.27,3.27,0,0,1,3.27-3.27A3.27,3.27,0,0,1-3.71-1.855Z" transform="translate(10.25 5.125)"/>
      </g>
      <path id="패스_882-2" data-name="패스 882" class="cls-3" d="M0-75.706H56.286v48.3H0Z" transform="translate(21 333.706)"/>
    </g>
  </g>
</svg>
