<svg xmlns="http://www.w3.org/2000/svg" xmlns:xlink="http://www.w3.org/1999/xlink" viewBox="0 0 49 35">
  <defs>
    <style>
      .cls-1, .cls-4 {
        fill: #8a8a8a;
      }

      .cls-2 {
        clip-path: url(#clip-앱카드_1);
      }

      .cls-3 {
        clip-path: url(#clip-path);
      }

      .cls-4 {
        fill-rule: evenodd;
      }
    </style>
    <clipPath id="clip-path">
      <path id="패스_1060" data-name="패스 1060" class="cls-1" d="M0-121.528H45v31H0Z" transform="translate(0 121.528)"/>
    </clipPath>
    <clipPath id="clip-앱카드_1">
      <rect width="49" height="35"/>
    </clipPath>
  </defs>
  <g id="앱카드_1" data-name="앱카드 – 1" class="cls-2">
    <g id="그룹_849" data-name="그룹 849" class="cls-3" transform="translate(2 2)">
      <g id="그룹_847" data-name="그룹 847" transform="translate(0 0)">
        <path id="패스_1058" data-name="패스 1058" class="cls-4" d="M-76.178-20.832h4.971c3.49,0,6.982-.031,10.471.018.988.014,1.221-.4,1.138-1.294a2.84,2.84,0,0,0-3.084-2.65c-4.612-.01-9.226-.056-13.837.03-1.309.024-2.227-.249-2.79-1.515a13.24,13.24,0,0,0-1.037-1.619c.549-.032.94-.073,1.331-.074q8.165-.007,16.331,0a5.918,5.918,0,0,1,6.19,6.289q.008,9.18,0,18.361a5.92,5.92,0,0,1-6.176,6.309c-1.989-.007-3.981-.074-5.967-.187A5.778,5.778,0,0,1-73.4-.381C-76.744-6-80.128-11.6-83.5-17.2c-1.219-2.024-2.464-4.032-3.679-6.058a2.866,2.866,0,0,0-2.794-1.52c-1.826.07-3.656,0-5.485.025a2.756,2.756,0,0,0-2.912,2.942q-.032,9.371,0,18.743A2.8,2.8,0,0,0-95.292-.151c4.7.017,9.392.05,14.087-.024a2.408,2.408,0,0,1,2.6,1.4,15.542,15.542,0,0,0,1.121,1.726c-.512.035-.856.078-1.2.078q-8.29.007-16.58,0c-3.747-.005-6.222-2.556-6.225-6.4q-.006-9.116,0-18.233c0-3.778,2.478-6.32,6.151-6.331,1.745-.005,3.492.04,5.235-.022a5.871,5.871,0,0,1,5.613,3.074q3.912,6.51,7.838,13.01c1.938,3.217,3.92,6.407,5.789,9.665A3.73,3.73,0,0,0-67.4-.164c1.62.018,3.241.04,4.861.011A2.8,2.8,0,0,0-59.6-3.212c.018-3.74-.027-7.481.027-11.22.015-1.011-.3-1.334-1.269-1.324-3.532.039-7.065-.033-10.6.041A2.313,2.313,0,0,1-73.928-17.1c-.593-1.207-1.381-2.313-2.25-3.735" transform="translate(101.49 27.965)"/>
      </g>
      <g id="그룹_848" data-name="그룹 848" transform="translate(5.949 10.463)">
        <path id="패스_1059" data-name="패스 1059" class="cls-4" d="M-7.21-14.625c0,1.189-.008,2.378,0,3.567.008.876-.246,1.526-1.239,1.518-.93-.007-1.165-.613-1.16-1.446q.02-3.63,0-7.261c0-.859.3-1.4,1.217-1.386s1.189.6,1.18,1.441c-.012,1.189,0,2.378,0,3.567" transform="translate(9.606 19.634)"/>
      </g>
    </g>
  </g>
</svg>
