<svg xmlns="http://www.w3.org/2000/svg" xmlns:xlink="http://www.w3.org/1999/xlink" viewBox="0 0 146 67">
  <defs>
    <style>
      .cls-1, .cls-4 {
        fill: #8a8a8a;
      }

      .cls-2 {
        clip-path: url(#clip-삼성페이_1);
      }

      .cls-3 {
        clip-path: url(#clip-path);
      }

      .cls-4 {
        fill-rule: evenodd;
      }
    </style>
    <clipPath id="clip-path">
      <path id="패스_979" data-name="패스 979" class="cls-1" d="M0-271.843H143.719v65.029H0Z" transform="translate(0 271.843)"/>
    </clipPath>
    <clipPath id="clip-삼성페이_1">
      <rect width="146" height="67"/>
    </clipPath>
  </defs>
  <g id="삼성페이_1" data-name="삼성페이 – 1" class="cls-2">
    <g id="그룹_661" data-name="그룹 661" transform="translate(1.314 1)">
      <g id="그룹_671" data-name="그룹 671" class="cls-3">
        <g id="그룹_661-2" data-name="그룹 661" transform="translate(32.861 31.525)">
          <path id="패스_969" data-name="패스 969" class="cls-4" d="M-37.462-64.6a6.948,6.948,0,0,0,6.578-4.337,9.153,9.153,0,0,0,.6-4.447c-.334-3.746-2.722-6.482-6.216-6.9a6.76,6.76,0,0,0-7.324,4.163,10.676,10.676,0,0,0-.464,5.581c.591,3.77,3.058,5.919,6.827,5.938m-6.683,1.929v11.247h-1.724c-.94,0-1.88-.026-2.819.011-.491.019-.636-.162-.6-.619.03-.376.006-.757.006-1.135V-84.332h5.221v2.347c.333-.354.546-.6.781-.827a7.742,7.742,0,0,1,4.637-2.015,12.212,12.212,0,0,1,13.274,9.2,12.537,12.537,0,0,1-8.664,15.289A10.767,10.767,0,0,1-41.9-61.1a20.213,20.213,0,0,1-2.248-1.571" transform="translate(49.292 84.916)"/>
        </g>
        <g id="그룹_662" data-name="그룹 662" transform="translate(60.428 31.506)">
          <path id="패스_970" data-name="패스 970" class="cls-4" d="M-39.4-64.664a6.369,6.369,0,0,0,6.731-5.327,11.54,11.54,0,0,0,.09-4.74,6.6,6.6,0,0,0-6.111-5.632,6.8,6.8,0,0,0-7.057,3.9,10.187,10.187,0,0,0-.813,4.952A7.172,7.172,0,0,0-39.4-64.664m11.85,4.191H-32.7v-2.465a7.929,7.929,0,0,1-4.55,2.621,11.81,11.81,0,0,1-13.488-6.929,12.616,12.616,0,0,1,5.973-16.606,11.52,11.52,0,0,1,8.17-.7,7.077,7.077,0,0,1,3.786,2.511V-84.43h2.428c.78,0,1.56.015,2.34-.006.365-.01.519.122.488.482-.011.119,0,.239,0,.359v23.123Z" transform="translate(51.845 84.996)"/>
        </g>
        <g id="그룹_663" data-name="그룹 663" transform="translate(39.094 0.693)">
          <path id="패스_971" data-name="패스 971" class="cls-4" d="M-16.089-6.523c0,.791,0,1.582,0,2.373-.024,5.062-.063,10.125-.06,15.187,0,.627-.193.775-.783.754-1.2-.043-2.4-.011-3.6-.014-.215,0-.429-.019-.634-.029,0-.66-.011-1.271,0-1.882q.135-6.455.277-12.91c.037-1.674.091-3.347.108-5.02,0-.4.154-.508.528-.506q3.659.016,7.319,0c.334,0,.48.091.537.455.5,3.161,1.019,6.319,1.53,9.478.289,1.786.569,3.573.86,5.358.017.1.091.2.257.3.167-1.009.337-2.018.5-3.027Q-8.272-2.045-7.3-8.08a.507.507,0,0,1,.594-.493q3.63.022,7.259,0c.477,0,.562.221.569.62.03,1.793.078,3.586.115,5.379q.138,6.784.271,13.568c0,.233,0,.466,0,.742h-5Q-3.572,2.618-3.65-6.478l-.2-.017c-.173.882-.353,1.762-.517,2.645q-1.4,7.532-2.791,15.067c-.069.372-.186.585-.647.573-1.359-.035-2.719-.022-4.079-.007-.386,0-.545-.108-.621-.519q-1.6-8.678-3.235-17.348a3.549,3.549,0,0,0-.14-.438h-.208" transform="translate(21.17 8.574)"/>
        </g>
        <g id="그룹_664" data-name="그룹 664" transform="translate(88.126 32.058)">
          <path id="패스_972" data-name="패스 972" class="cls-4" d="M-18.327-104.813c.878-2.034,1.7-3.932,2.516-5.83.577-1.333,1.145-2.671,1.743-3.995a1.231,1.231,0,0,0-.012-1.122q-4.882-10.638-9.739-21.287c-.1-.212-.18-.43-.3-.707,1.779,0,3.477-.016,5.173.023.183,0,.434.3.528.511q2.832,6.484,5.631,12.983c.481,1.111.966,2.22,1.509,3.468.152-.333.255-.534.339-.743q3.122-7.816,6.229-15.638a.81.81,0,0,1,.9-.62c1.6.035,3.193.013,4.869.013-.133.34-.233.615-.347.884q-6.682,15.711-13.356,31.425a.869.869,0,0,1-.961.647c-1.339-.04-2.679-.013-4.019-.013Z" transform="translate(24.115 137.769)"/>
        </g>
        <g id="그룹_665" data-name="그룹 665" transform="translate(106.628 0.688)">
          <path id="패스_973" data-name="패스 973" class="cls-4" d="M-15.177-11.034v16.7H-19.97V-14.445c.208-.017.4-.044.594-.045,2.1,0,4.2.015,6.3-.014.5-.007.682.174.814.631Q-10.119-6.485-7.936.89a1.2,1.2,0,0,0,.365.6c.011-.213.036-.426.032-.638q-.117-7.262-.24-14.525a2.15,2.15,0,0,1,.013-.535c.025-.1.156-.261.242-.261,1.552-.016,3.1-.012,4.69-.012V5.7H-3.4c-2.02,0-4.039-.017-6.058.012-.474.007-.637-.164-.767-.593Q-12.569-2.644-14.95-10.4c-.055-.181-.126-.357-.227-.638" transform="translate(19.97 14.504)"/>
        </g>
        <g id="그룹_666" data-name="그룹 666" transform="translate(86.413 0.694)">
          <path id="패스_974" data-name="패스 974" class="cls-4" d="M-29.283-.22A4.682,4.682,0,0,1-28.8-.28c1.36,0,2.72.009,4.08-.01.412-.006.567.124.549.547-.03.7-.007,1.395-.008,2.092,0,4.226.007,8.451-.02,12.676a7.273,7.273,0,0,1-.287,1.939,4.686,4.686,0,0,1-3.5,3.284,12.332,12.332,0,0,1-6.457.074A4.876,4.876,0,0,1-38.5,15.249c-.062-5.082-.019-10.165-.019-15.247a1.483,1.483,0,0,1,.045-.227h5.049V.508q0,7.235,0,14.47a2.025,2.025,0,0,0,2.812,2.016,1.869,1.869,0,0,0,1.322-1.975q.008-4.993,0-9.986c0-1.732,0-3.464,0-5.254" transform="translate(38.53 0.29)"/>
        </g>
        <g id="그룹_667" data-name="그룹 667" transform="translate(129.239 0.136)">
          <path id="패스_975" data-name="패스 975" class="cls-4" d="M-23.244-39.454c0-.891.01-1.667,0-2.443-.006-.309.113-.429.418-.428,2.119.006,4.238,0,6.357.021a.539.539,0,0,1,.365.379c-.012,2.209.021,4.423-.11,6.626a4.428,4.428,0,0,1-2.94,3.961,10.613,10.613,0,0,1-8.223.061,4.869,4.869,0,0,1-3.162-4.839q-.077-5.02,0-10.041c.053-3.147,2.018-5.182,5.225-5.574a14.322,14.322,0,0,1,4.529.107A5.247,5.247,0,0,1-16.108-46.1c.01.377,0,.753,0,1.18H-21.2c0-.447.009-.861,0-1.275A1.985,1.985,0,0,0-23.192-48.3a2.039,2.039,0,0,0-2.325,1.819,4.346,4.346,0,0,0-.047.714q0,4.662,0,9.325a2.186,2.186,0,0,0,3.171,2.171,1.682,1.682,0,0,0,1.2-1.62c.02-1.036.007-2.072.025-3.108.006-.336-.124-.466-.457-.456-.514.014-1.029,0-1.618,0" transform="translate(30.584 51.859)"/>
        </g>
        <g id="그룹_668" data-name="그룹 668" transform="translate(0 0)">
          <path id="패스_976" data-name="패스 976" class="cls-4" d="M-45.093-20.7h-5c0-.4.01-.773,0-1.146a1.823,1.823,0,0,0-1.353-1.888,2.05,2.05,0,0,0-2.333.775,1.984,1.984,0,0,0,.34,2.517,13.215,13.215,0,0,0,2.013,1.385c1.117.658,2.279,1.239,3.4,1.9a12.13,12.13,0,0,1,1.6,1.155,4.741,4.741,0,0,1,1.824,3.978A15.975,15.975,0,0,1-44.8-9.594a4.849,4.849,0,0,1-3.9,3.842,12.185,12.185,0,0,1-6.74-.085,5.114,5.114,0,0,1-3.883-5.184c-.006-.438.01-.877-.006-1.315-.012-.313.125-.425.425-.424q2.249.007,4.5,0c.334,0,.453.133.456.462a13.39,13.39,0,0,0,.087,1.846,1.88,1.88,0,0,0,2.1,1.544A1.9,1.9,0,0,0-49.714-10.6a2.374,2.374,0,0,0-.972-2.418c-.822-.594-1.7-1.117-2.563-1.649-1.171-.721-2.4-1.357-3.524-2.145-2.378-1.671-2.909-3.795-2.135-6.645a4.748,4.748,0,0,1,3.7-3.315,12.155,12.155,0,0,1,6.681.051,4.417,4.417,0,0,1,3.434,4.591c0,.456,0,.912,0,1.425" transform="translate(59.333 27.213)"/>
        </g>
        <g id="그룹_669" data-name="그룹 669" transform="translate(66.955 0.122)">
          <path id="패스_977" data-name="패스 977" class="cls-4" d="M-.024-45.43H5.322c0,.629-.006,1.239,0,1.849a1.83,1.83,0,0,0,2,1.951,1.861,1.861,0,0,0,2.166-1.854,2.167,2.167,0,0,0-.81-2.016,26.317,26.317,0,0,0-2.318-1.579c-1.2-.744-2.469-1.395-3.645-2.179A5.132,5.132,0,0,1,.213-52.681c-.565-3.47.822-5.948,4.2-6.7a12.539,12.539,0,0,1,5.989.069,4.491,4.491,0,0,1,3.669,4.668c.011.432,0,.865,0,1.33H9.1c0-.409.011-.782,0-1.154a1.776,1.776,0,0,0-1.306-1.793,2.083,2.083,0,0,0-2.311.7A2.023,2.023,0,0,0,5.7-53.134,10.212,10.212,0,0,0,7.527-51.8c1.148.682,2.339,1.293,3.5,1.949.347.2.666.439,1,.662,2.084,1.4,2.68,3.367,2.5,5.8-.259,3.555-2.8,4.855-5.412,5.178a12.136,12.136,0,0,1-5.673-.481A4.94,4.94,0,0,1-.021-43.43c-.023-.651,0-1.3,0-2" transform="translate(0.032 59.715)"/>
        </g>
        <g id="그룹_670" data-name="그룹 670" transform="translate(18.222 0.689)">
          <path id="패스_978" data-name="패스 978" class="cls-4" d="M-52.415-64.739h-1.96c-.96,0-1.921-.02-2.88.009a.519.519,0,0,1-.621-.527q-.483-3.4-.982-6.789-.752-5.1-1.516-10.207a3.048,3.048,0,0,0-.284-1.01,1.731,1.731,0,0,0-.152.376q-.919,6.1-1.829,12.21c-.276,1.848-.552,3.7-.851,5.542-.023.144-.222.371-.342.372-1.675.025-3.351.017-5.135.017.151-.864.281-1.656.428-2.445q1.6-8.649,3.206-17.3c.076-.411.21-.611.685-.607,2.659.023,5.319.018,7.979,0,.426,0,.576.15.652.567q1.755,9.56,3.541,19.115c.035.189.036.385.062.669" transform="translate(68.968 85.095)"/>
        </g>
      </g>
    </g>
  </g>
</svg>
