<svg xmlns="http://www.w3.org/2000/svg" xmlns:xlink="http://www.w3.org/1999/xlink" viewBox="4007 1629 124 124"><defs><style>.a{clip-path:url(#b);}.b,.c,.d{fill:none;}.b,.c{stroke:#000;stroke-miterlimit:10;stroke-width:4px;}.b{stroke-linecap:round;stroke-linejoin:round;}</style><clipPath id="b"><rect x="4007" y="1629" width="124" height="124"/></clipPath></defs><g id="a" class="a"><path class="b" d="M88.56,68.289V17.828c0-2.3-1.713-3.612-4.02-3.612H30.254c-2.3,0-4.177,1.309-4.177,3.612V92.991c0,2.307,2.927,5.335,5.234,5.335H59.723" transform="translate(4007.201 1629.329)"/><line class="b" x2="38.456" transform="translate(4045.293 1688.002)"/><line class="b" x2="38.456" transform="translate(4045.293 1675.987)"/><line class="b" x2="38.456" transform="translate(4045.293 1662.771)"/><path class="c" d="M99.1,89.073a17.864,17.864,0,1,0-17.866,17.866A17.865,17.865,0,0,0,99.1,89.073" transform="translate(4007.49 1630.769)"/><path class="b" d="M80.928,75.028V88.351l8.67,2.834" transform="translate(4007.625 1632.294)"/><rect class="d" width="124" height="124" transform="translate(4007 1629.219)"/></g></svg>