<?xml version="1.0" encoding="utf-8"?>
<!-- Generator: Adobe Illustrator 16.0.0, SVG Export Plug-In . SVG Version: 6.00 Build 0)  -->
<!DOCTYPE svg PUBLIC "-//W3C//DTD SVG 1.1//EN" "http://www.w3.org/Graphics/SVG/1.1/DTD/svg11.dtd">
<svg version="1.1" xmlns="http://www.w3.org/2000/svg" xmlns:xlink="http://www.w3.org/1999/xlink" x="0px" y="0px"
	 width="31.181px" height="31.181px" viewBox="0 0 31.181 31.181" enable-background="new 0 0 31.181 31.181" xml:space="preserve">
<g id="Layer_1">
	<path fill="none" stroke="#0957C3" stroke-width="1.5" stroke-linecap="round" stroke-linejoin="round" stroke-miterlimit="10" d="
		M23.667,18.47V4.639c0-0.593-0.44-0.929-1.033-0.929H8.684c-0.592,0-1.074,0.336-1.074,0.929v19.316
		c0,0.592,0.753,1.368,1.345,1.368h8.492"/>
	
		<line fill="none" stroke="#0957C3" stroke-width="1.5" stroke-linecap="round" stroke-linejoin="round" stroke-miterlimit="10" x1="10.698" y1="15.135" x2="20.58" y2="15.135"/>
	
		<line fill="none" stroke="#0957C3" stroke-width="1.5" stroke-linecap="round" stroke-linejoin="round" stroke-miterlimit="10" x1="10.698" y1="12.046" x2="20.58" y2="12.046"/>
	
		<line fill="none" stroke="#0957C3" stroke-width="1.5" stroke-linecap="round" stroke-linejoin="round" stroke-miterlimit="10" x1="10.698" y1="8.65" x2="20.58" y2="8.65"/>
	<path fill="none" stroke="#0957C3" stroke-width="1.5" stroke-miterlimit="10" d="M26.449,23.06c0-2.535-2.055-4.59-4.59-4.59
		c-2.535,0-4.59,2.055-4.59,4.59c0,2.536,2.055,4.592,4.59,4.592C24.395,27.651,26.449,25.596,26.449,23.06"/>
	
		<circle fill="none" stroke="#0957C3" stroke-width="1.5" stroke-linecap="round" stroke-linejoin="round" stroke-miterlimit="10" cx="21.859" cy="23.06" r="4.59"/>
	
		<polyline fill="none" stroke="#0957C3" stroke-width="1.5" stroke-linecap="round" stroke-linejoin="round" stroke-miterlimit="10" points="
		21.814,19.983 21.814,23.199 24.249,23.995 	"/>
	<rect y="0.181" fill="none" width="31" height="31"/>
</g>
<g id="Layer_2">
</g>
</svg>
