<svg xmlns="http://www.w3.org/2000/svg" xmlns:xlink="http://www.w3.org/1999/xlink" viewBox="0 0 63 63">
  <defs>
    <style>
      .cls-1 {
        clip-path: url(#clip-주문내역_영수증);
      }

      .cls-2, .cls-3 {
        fill: none;
      }

      .cls-3 {
        stroke: #0856c3;
        stroke-linecap: round;
        stroke-linejoin: round;
        stroke-miterlimit: 10;
        stroke-width: 3px;
      }

      .cls-4 {
        fill: #0856c3;
      }
    </style>
    <clipPath id="clip-주문내역_영수증">
      <rect width="63" height="63"/>
    </clipPath>
  </defs>
  <g id="주문내역_영수증" data-name="주문내역/영수증" class="cls-1">
    <g id="그룹_498" data-name="그룹 498" transform="translate(-4389 -1900)">
      <rect id="사각형_296" data-name="사각형 296" class="cls-2" width="63" height="63" transform="translate(4389 1900)"/>
      <g id="그룹_430" data-name="그룹 430" transform="translate(4397.338 1910.191)">
        <path id="패스_22" data-name="패스 22" class="cls-3" d="M20.028,26.482H43.421M20.028,21.219h16.96m-16.96-5.263H43.421M15.349,13.617V32.147l1.868,1.868a1.754,1.754,0,0,1,0,2.481l-1.868,1.868V51.631A1.755,1.755,0,0,0,17.1,53.386H46.93a1.753,1.753,0,0,0,1.753-1.755V38.363L46.815,36.5a1.755,1.755,0,0,1,0-2.481l1.868-1.868V13.617M13.594,17.125H10.671a1.754,1.754,0,0,1-1.755-1.753V13.617a1.755,1.755,0,0,1,1.755-1.755H53.362a1.755,1.755,0,0,1,1.753,1.755v1.755a1.754,1.754,0,0,1-1.753,1.753H50.438" transform="translate(-8.916 -11.862)"/>
        <rect id="사각형_159" data-name="사각형 159" class="cls-4" width="1.755" height="7.601" transform="translate(11.112 29.827)"/>
        <rect id="사각형_160" data-name="사각형 160" class="cls-4" width="1.753" height="7.601" transform="translate(14.621 29.827)"/>
        <rect id="사각형_161" data-name="사각형 161" class="cls-4" width="3.51" height="7.601" transform="translate(19.3 29.827)"/>
        <rect id="사각형_162" data-name="사각형 162" class="cls-4" width="1.169" height="7.601" transform="translate(23.978 29.827)"/>
        <rect id="사각형_163" data-name="사각형 163" class="cls-4" width="1.753" height="7.601" transform="translate(27.487 29.827)"/>
        <rect id="사각형_164" data-name="사각형 164" class="cls-4" width="4.677" height="7.601" transform="translate(30.411 29.827)"/>
      </g>
    </g>
  </g>
</svg>
