<svg xmlns="http://www.w3.org/2000/svg" xmlns:xlink="http://www.w3.org/1999/xlink" viewBox="0 0 50 50">
  <defs>
    <style>
      .cls-1 {
        fill: none;
      }

      .cls-2 {
        clip-path: url(#clip-포장2);
      }

      .cls-3 {
        clip-path: url(#clip-path);
      }

      .cls-4 {
        fill: #a3a3a3;
      }
    </style>
    <clipPath id="clip-path">
      <path id="패스_1029" data-name="패스 1029" class="cls-1" d="M0-384.133H41.584v41.779H0Z" transform="translate(0 384.133)"/>
    </clipPath>
    <clipPath id="clip-포장2">
      <rect width="50" height="50"/>
    </clipPath>
  </defs>
  <g id="포장2" class="cls-2">
    <g id="그룹_846" data-name="그룹 846" transform="translate(3.99 3.93)">
      <g id="그룹_771" data-name="그룹 771" class="cls-3" transform="translate(0 0)">
        <g id="그룹_770" data-name="그룹 770" transform="translate(0 0)">
          <path id="패스_1028" data-name="패스 1028" class="cls-4" d="M-326.49-120.817a1.173,1.173,0,0,1-1.171,1.171h-35.76a1.173,1.173,0,0,1-1.172-1.171v-2.716a2.195,2.195,0,0,1,2.192-2.192h9.644v1.267h1.74v-1.267h1.526v2.9h1.74v-2.9h1.373v4.5h1.74v-4.5h1.373v2.9h1.74v-2.9h1.441v1.267h1.74v-1.267h9.661a2.195,2.195,0,0,1,2.192,2.192Zm-3.2,9.848h-11.836v-6.936h11.836Zm-4.234,15.447h-7.6V-102.8h11.836v3.043a4.239,4.239,0,0,1-4.234,4.234m-27.541-4.234V-102.8h11.972v7.276h-7.738a4.239,4.239,0,0,1-4.234-4.234m0-9.474h11.972v1.458h-6.037v1.74h6.037v1.492h-11.972Zm19.939,3.2h6.071v-1.74h-6.071v-1.458h11.836v4.691h-11.836Zm-3.113-5.072v-6.8h1.373v22.384h-4.487v-22.384h1.373v6.8Zm-4.854.134h-11.972v-6.936h11.972Zm0-6.936-4.742-12.737c0-1.989,2.01-3.178,3.953-3.178.915,0,3.9.171,3.9,2.371v3.985h-4.92c-.941-.428-2.935-1.652-2.935-3.178m13.5-3.178c1.943,0,3.953,1.189,3.953,3.178,0,1.526-2,2.75-2.935,3.178h-4.92v-3.985c0-2.2,2.987-2.371,3.9-2.371m12.054,6.356h-7.93a4.4,4.4,0,0,0,1.57-3.178c0-3.078-2.895-4.918-5.693-4.918a6.17,6.17,0,0,0-4.772,1.693,6.171,6.171,0,0,0-4.772-1.693c-2.8,0-5.693,1.84-5.693,4.918a4.4,4.4,0,0,0,1.57,3.178h-8a3.937,3.937,0,0,0-3.932,3.932v2.716a2.915,2.915,0,0,0,2.912,2.912h.219v18.15a5.981,5.981,0,0,0,5.974,5.974h23.307a5.981,5.981,0,0,0,5.974-5.974v-18.15h.287a2.915,2.915,0,0,0,2.912-2.912v-2.716a3.937,3.937,0,0,0-3.932-3.932" transform="translate(366.334 135.561)"/>
        </g>
      </g>
    </g>
  </g>
</svg>
