<?xml version="1.0" encoding="utf-8"?>
<!-- Generator: Adobe Illustrator 16.0.0, SVG Export Plug-In . SVG Version: 6.00 Build 0)  -->
<!DOCTYPE svg PUBLIC "-//W3C//DTD SVG 1.1//EN" "http://www.w3.org/Graphics/SVG/1.1/DTD/svg11.dtd">
<svg version="1.1" id="Layer_1" xmlns="http://www.w3.org/2000/svg" xmlns:xlink="http://www.w3.org/1999/xlink" x="0px" y="0px"
	 width="500px" height="100px" viewBox="0 0 500 100" enable-background="new 0 0 500 100" xml:space="preserve">
<path fill="#FFFFFF" stroke="#999999" stroke-miterlimit="10" d="M338.5,56.274c0,12.827-10.398,23.226-23.226,23.226H180.726
	c-12.827,0-23.226-10.398-23.226-23.226v-1.549c0-12.827,10.398-23.226,23.226-23.226h134.549c12.827,0,23.226,10.398,23.226,23.226
	V56.274z"/>
<g>
	
		<path fill="none" stroke="#0856c3" stroke-width="1.5484" stroke-linecap="round" stroke-linejoin="round" stroke-miterlimit="10" d="
		M313.68,38.075l4.689,4.689c0.156,0.155,0.156,0.406,0,0.563l-4.689,4.688"/>
	
		<path fill="none" stroke="#0856c3" stroke-width="1.5484" stroke-linecap="round" stroke-linejoin="round" stroke-miterlimit="10" d="
		M315.116,42.805c-7.42,0.041-13.424,6.063-13.424,13.494c0,7.453,6.042,13.496,13.497,13.496s13.497-6.043,13.497-13.496
		c0-1.479-0.245-2.897-0.685-4.229"/>
</g>
<g>
	<path fill="#666666" d="M181.798,45.753v1.432c0,1.753,0.138,3.384,0.416,4.894c0.277,1.509,0.716,2.885,1.314,4.128
		c0.533,1.154,1.215,2.186,2.048,3.096c0.832,0.91,1.814,1.665,2.946,2.264c-0.156,0.133-0.312,0.267-0.467,0.399
		c-0.155,0.134-0.311,0.267-0.466,0.399c-0.133,0.134-0.271,0.267-0.416,0.399c-0.145,0.134-0.272,0.245-0.383,0.333
		c-0.644-0.399-1.276-0.893-1.897-1.481c-0.622-0.588-1.198-1.248-1.731-1.98c-0.599-0.776-1.115-1.614-1.548-2.514
		c-0.433-0.898-0.771-1.836-1.016-2.813c-0.199,0.932-0.521,1.881-0.965,2.846c-0.444,0.966-0.966,1.893-1.564,2.78
		c-0.622,0.888-1.299,1.714-2.031,2.479s-1.465,1.415-2.197,1.948c-0.133-0.067-0.277-0.161-0.433-0.283s-0.333-0.25-0.532-0.383
		c-0.179-0.111-0.361-0.228-0.55-0.35s-0.36-0.238-0.516-0.35c1.509-0.999,2.773-2.131,3.795-3.396
		c1.021-1.266,1.853-2.663,2.497-4.194c0.532-1.287,0.915-2.686,1.148-4.195c0.232-1.509,0.35-3.106,0.35-4.794v-0.665
		c0-0.6-0.012-1.165-0.033-1.698c-0.022-0.532-0.067-1.099-0.134-1.697h2.53c-0.066,0.599-0.111,1.165-0.133,1.697
		C181.809,44.588,181.798,45.153,181.798,45.753z M192.251,52.111h4.128v-6.825c0-0.732-0.012-1.47-0.033-2.213
		c-0.022-0.744-0.067-1.493-0.134-2.248h2.431c-0.066,0.755-0.105,1.504-0.117,2.248c-0.011,0.743-0.017,1.48-0.017,2.213v20.641
		c0,0.754,0.006,1.503,0.017,2.247c0.012,0.743,0.051,1.481,0.117,2.214h-2.431c0.066-0.732,0.111-1.471,0.134-2.214
		c0.021-0.744,0.033-1.493,0.033-2.247V54.042h-4.128v10.486c0,0.755,0,1.503,0,2.247c0,0.743,0.033,1.481,0.1,2.214h-2.363
		c0.044-0.732,0.077-1.471,0.1-2.214c0.021-0.744,0.033-1.492,0.033-2.247V45.786c0-0.732-0.012-1.47-0.033-2.214
		c-0.022-0.743-0.056-1.492-0.1-2.247h2.363c-0.066,0.755-0.1,1.504-0.1,2.247c0,0.744,0,1.481,0,2.214V52.111z"/>
	<path fill="#666666" d="M215.287,58.603h-8.922v-8.922h17.444v-5.593h-14.647c-0.467,0-0.949,0.012-1.448,0.033
		c-0.5,0.022-0.982,0.056-1.448,0.101v-1.998c0.532,0.066,1.032,0.105,1.498,0.117c0.466,0.011,0.932,0.017,1.398,0.017h16.944
		c-0.066,0.422-0.111,0.898-0.133,1.431c-0.022,0.533-0.033,1.032-0.033,1.498v6.126h-17.444v5.46h15.646c0.532,0,1.037,0,1.515,0
		c0.477,0,0.982-0.034,1.515-0.101v1.965c-0.555-0.067-1.065-0.105-1.531-0.117c-0.466-0.011-0.966-0.017-1.498-0.017h-6.691v6.025
		h7.757c0.865,0,1.714-0.005,2.546-0.017c0.833-0.011,1.682-0.05,2.547-0.116v2.03c-0.865-0.066-1.714-0.105-2.547-0.116
		c-0.832-0.012-1.681-0.017-2.546-0.017h-17.611c-0.865,0-1.714,0.005-2.546,0.017c-0.833,0.011-1.682,0.05-2.547,0.116v-2.03
		c0.865,0.066,1.714,0.105,2.547,0.116c0.832,0.012,1.681,0.017,2.546,0.017h7.69V58.603z"/>
	<path fill="#666666" d="M243.018,64.528v-8.622c0-0.466-0.006-0.954-0.017-1.465c-0.012-0.511-0.05-0.999-0.116-1.465h2.43
		c-0.066,0.444-0.105,0.938-0.116,1.481c-0.012,0.544-0.017,1.027-0.017,1.448v8.622h10.021c0.865,0,1.714-0.005,2.547-0.017
		c0.832-0.011,1.681-0.05,2.546-0.116v2.063c-0.865-0.066-1.714-0.105-2.546-0.116c-0.833-0.012-1.682-0.017-2.547-0.017h-17.645
		c-0.865,0-1.714,0.005-2.546,0.017c-0.833,0.011-1.682,0.05-2.547,0.116v-2.063c0.865,0.066,1.714,0.105,2.547,0.116
		c0.832,0.012,1.681,0.017,2.546,0.017H243.018z M239.722,42.623h17.045c-0.155,2.797-0.405,5.704-0.749,8.723
		c-0.345,3.019-0.805,5.926-1.382,8.722l-2.197-0.033c0.244-1.265,0.483-2.574,0.716-3.929c0.233-1.353,0.438-2.707,0.616-4.061
		c0.199-1.354,0.366-2.681,0.499-3.979c0.134-1.299,0.222-2.524,0.267-3.679h-14.814c-0.71,0-1.348,0.006-1.914,0.017
		c-0.565,0.012-1.193,0.05-1.881,0.116v-2.03c0.688,0.066,1.315,0.105,1.881,0.116C238.374,42.618,239.012,42.623,239.722,42.623z"
		/>
	<path fill="#666666" d="M267.586,47.084c-0.489,0-0.933,0.006-1.332,0.017c-0.399,0.012-0.832,0.05-1.298,0.117v-2.031
		c0.466,0.066,0.898,0.105,1.298,0.117c0.399,0.011,0.843,0.017,1.332,0.017h10.253c0.466,0,0.899-0.006,1.299-0.017
		c0.399-0.012,0.843-0.051,1.331-0.117v2.031c-0.488-0.067-0.932-0.105-1.331-0.117c-0.399-0.011-0.833-0.017-1.299-0.017
		l-4.062-0.033c0.089,1.11,0.41,2.114,0.966,3.013c0.555,0.899,1.242,1.693,2.063,2.381s1.715,1.271,2.681,1.747
		c0.965,0.478,1.914,0.86,2.846,1.148c-0.288,0.267-0.544,0.511-0.766,0.732c-0.222,0.223-0.433,0.467-0.633,0.732
		c-1.664-0.532-3.229-1.354-4.693-2.463s-2.63-2.386-3.496-3.829c-0.821,1.731-1.958,3.208-3.412,4.428
		c-1.453,1.221-3.035,2.209-4.743,2.963c-0.223-0.199-0.5-0.443-0.833-0.732c-0.333-0.288-0.644-0.532-0.932-0.732
		c1.043-0.354,2.059-0.81,3.046-1.364s1.869-1.221,2.646-1.998c0.799-0.776,1.459-1.664,1.98-2.663
		c0.521-0.998,0.85-2.119,0.982-3.362L267.586,47.084z M274.843,42.59h-4.228c-0.2,0-0.389,0-0.566,0s-0.366,0-0.565,0
		c-0.178,0-0.355,0.006-0.533,0.017c-0.178,0.012-0.366,0.028-0.565,0.05v-1.897c0.399,0.045,0.771,0.066,1.115,0.066
		c0.344,0,0.716,0,1.115,0h4.228c0.377,0,0.743,0,1.099,0c0.354,0,0.732-0.021,1.132-0.066v1.897
		c-0.399-0.021-0.777-0.038-1.132-0.05C275.586,42.596,275.22,42.59,274.843,42.59z M288.06,70.055h-19.176v-7.49
		c0-0.444-0.017-0.91-0.05-1.398s-0.083-0.966-0.149-1.432h19.508c-0.066,0.511-0.105,0.988-0.116,1.432
		c-0.012,0.444-0.017,0.91-0.017,1.398V70.055z M285.929,68.29v-6.791h-14.881v6.791H285.929z M288.06,44.188V58.07h-2.131V44.188
		c0-0.555-0.012-1.11-0.033-1.665c-0.022-0.555-0.066-1.12-0.134-1.698h2.431c-0.066,0.578-0.105,1.144-0.116,1.698
		C288.064,43.078,288.06,43.634,288.06,44.188z"/>
</g>
</svg>
