<svg xmlns="http://www.w3.org/2000/svg" xmlns:xlink="http://www.w3.org/1999/xlink" viewBox="0 0 269 90">
  <defs>
    <style>
      .cls-1 {
        fill: none;
      }

      .cls-2 {
        clip-path: url(#clip-만랩로고);
      }

      .cls-3 {
        clip-path: url(#clip-path);
      }

      .cls-4 {
        fill: #841632;
      }
    </style>
    <clipPath id="clip-path">
      <path id="패스_1026" data-name="패스 1026" class="cls-1" d="M0-35.979H268.259v90.3H0Z" transform="translate(0 35.979)"/>
    </clipPath>
    <clipPath id="clip-만랩로고">
      <rect width="269" height="90"/>
    </clipPath>
  </defs>
  <g id="만랩로고" class="cls-2">
    <g id="그룹_751" data-name="그룹 751" transform="translate(0.22)">
      <g id="그룹_750" data-name="그룹 750" class="cls-3" transform="translate(0 0)">
        <g id="그룹_727" data-name="그룹 727" transform="translate(116.933 -0.002)">
          <path id="패스_998" data-name="패스 998" class="cls-4" d="M23.8,22.673-14.022-15.016a2.463,2.463,0,0,0-1.742,1.825L22.861,23.358s.585.181.941-.685" transform="translate(15.764 15.016)"/>
        </g>
        <g id="그룹_728" data-name="그룹 728" transform="translate(111.76 4.423)">
          <path id="패스_999" data-name="패스 999" class="cls-4" d="M26.063,20.77-15.685-13.756a2.454,2.454,0,0,0-1.576,1.97L25.184,21.536s.6.125.878-.766" transform="translate(17.261 13.756)"/>
        </g>
        <g id="그룹_729" data-name="그룹 729" transform="translate(92.581 79.73)">
          <path id="패스_1000" data-name="패스 1000" class="cls-4" d="M1.214,4.279c.515,0,.75-.311.75-.906V-.52c0-.595-.236-1.014-.75-1.014H.629V4.279ZM-.8,5.582V-2.834H1.417c1.443,0,1.98.846,1.98,2.194V3.373c0,1.36-.537,2.209-1.98,2.209Z" transform="translate(0.804 2.834)"/>
        </g>
        <g id="그룹_730" data-name="그룹 730" transform="translate(97.667 81.615)">
          <path id="패스_1001" data-name="패스 1001" class="cls-4" d="M2.455,0V4.631A1.865,1.865,0,0,1,.417,6.744,1.862,1.862,0,0,1-1.626,4.631V0H-.253V4.678c0,.572.3.8.705.8s.617-.228.617-.8V0Z" transform="translate(1.626)"/>
        </g>
        <g id="그룹_731" data-name="그룹 731" transform="translate(102.692 81.433)">
          <path id="패스_1002" data-name="패스 1002" class="cls-4" d="M3.252,4.037V-.641c0-.515-.274-.766-.668-.766-.419,0-.658.274-.658.778V4.037H.532V-.629c0-.5-.238-.778-.645-.778s-.645.251-.645.766V4.037h-1.4V-.691A1.755,1.755,0,0,1-.149-2.672a1.544,1.544,0,0,1,1.335.753,1.638,1.638,0,0,1,1.385-.753A1.79,1.79,0,0,1,4.625-.691V4.037Z" transform="translate(2.154 2.674)"/>
        </g>
        <g id="그룹_732" data-name="그룹 732" transform="translate(110.39 81.436)">
          <path id="패스_1003" data-name="패스 1003" class="cls-4" d="M.826,2.885a.7.7,0,0,0,.715.778c.442,0,.693-.264.693-.836V.14c0-.572-.251-.811-.693-.811S.826-.433.826.14Zm2.8-.058A1.848,1.848,0,0,1,1.767,4.893a1.24,1.24,0,0,1-.941-.311V6.957H-.547V.152A1.874,1.874,0,0,1,1.541-1.911,1.874,1.874,0,0,1,3.629.152Z" transform="translate(0.547 1.911)"/>
        </g>
        <g id="그룹_733" data-name="그룹 733" transform="translate(115.512 79.742)">
          <path id="패스_1004" data-name="패스 1004" class="cls-4" d="M.824,0V6.443c0,.562.228.668.55.668h.073V8.4H1.291C.109,8.4-.546,7.911-.546,6.6V0Z" transform="translate(0.546)"/>
        </g>
        <path id="패스_1005" data-name="패스 1005" class="cls-4" d="M47.082-2.364h1.4V4.275h-1.4Zm0-1.9h1.411V-2.85H47.082Z" transform="translate(71.089 83.87)"/>
        <g id="그룹_734" data-name="그룹 734" transform="translate(120.415 81.436)">
          <path id="패스_1006" data-name="패스 1006" class="cls-4" d="M1.623,4.036V-.585c0-.585-.251-.823-.658-.823-.392,0-.643.238-.643.823V4.036h-1.4V-.68A1.779,1.779,0,0,1,.93-2.673,1.825,1.825,0,0,1,3.006-.68V4.036Z" transform="translate(1.075 2.673)"/>
        </g>
        <g id="그룹_735" data-name="그룹 735" transform="translate(125.345 81.437)">
          <path id="패스_1007" data-name="패스 1007" class="cls-4" d="M1.694,1.234c0-.575-.274-.811-.715-.811S.274.659.274,1.234V3.766c0,.582.2.906.705.906a.681.681,0,0,0,.715-.715Zm-2.816.015A1.89,1.89,0,0,1,.979-.817,1.889,1.889,0,0,1,3.092,1.249V6.211a1.634,1.634,0,0,1-1.815,1.84H-.359V6.8H1.064c.5,0,.63-.178.63-.7V5.591a1.41,1.41,0,0,1-.919.321,1.808,1.808,0,0,1-1.9-2.063Z" transform="translate(1.122 0.817)"/>
        </g>
        <g id="그룹_736" data-name="그룹 736" transform="translate(133.078 79.729)">
          <path id="패스_1008" data-name="패스 1008" class="cls-4" d="M0,5.063V-3.353H3.772v1.3H1.433V.156H3.451V1.469H1.433V5.063Z" transform="translate(0 3.353)"/>
        </g>
        <g id="그룹_737" data-name="그룹 737" transform="translate(137.446 81.436)">
          <path id="패스_1009" data-name="패스 1009" class="cls-4" d="M.812,2.908a.754.754,0,0,0,.763.846.747.747,0,0,0,.753-.846V.162A.757.757,0,0,0,1.575-.7.763.763,0,0,0,.812.162ZM-.538.2A1.956,1.956,0,0,1,1.575-1.926,1.956,1.956,0,0,1,3.689.2V2.87A1.947,1.947,0,0,1,1.575,4.986,1.947,1.947,0,0,1-.538,2.87Z" transform="translate(0.538 1.926)"/>
        </g>
        <g id="그룹_738" data-name="그룹 738" transform="translate(142.461 81.436)">
          <path id="패스_1010" data-name="패스 1010" class="cls-4" d="M.811,2.908a.756.756,0,0,0,.766.846.747.747,0,0,0,.75-.846V.162A.756.756,0,0,0,1.576-.7.765.765,0,0,0,.811.162ZM-.537.2A1.954,1.954,0,0,1,1.576-1.926,1.954,1.954,0,0,1,3.687.2V2.87A1.945,1.945,0,0,1,1.576,4.986,1.945,1.945,0,0,1-.537,2.87Z" transform="translate(0.537 1.926)"/>
        </g>
        <g id="그룹_739" data-name="그룹 739" transform="translate(147.414 79.743)">
          <path id="패스_1011" data-name="패스 1011" class="cls-4" d="M1.694,2.239a.708.708,0,0,0-.715-.8c-.5,0-.705.334-.705.906v2.7c0,.575.274.811.705.811s.715-.236.715-.811Zm-2.816.035A1.8,1.8,0,0,1,.775.209,1.358,1.358,0,0,1,1.694.53V-1.483h1.4V5.03A1.887,1.887,0,0,1,.979,7.1a1.89,1.89,0,0,1-2.1-2.066Z" transform="translate(1.122 1.483)"/>
        </g>
        <g id="그룹_740" data-name="그룹 740" transform="translate(154.827 79.729)">
          <path id="패스_1012" data-name="패스 1012" class="cls-4" d="M.861,5.063V-2.111H-.57V-3.353H3.652v1.242H2.221V5.063Z" transform="translate(0.57 3.353)"/>
        </g>
        <g id="그룹_741" data-name="그룹 741" transform="translate(159.158 81.519)">
          <path id="패스_1013" data-name="패스 1013" class="cls-4" d="M1.551.753H1c-.5,0-.668.2-.668.873v4.5h-1.36V1.542C-1.027.073-.573-.5.87-.5h.68Z" transform="translate(1.027 0.499)"/>
        </g>
        <g id="그룹_742" data-name="그룹 742" transform="translate(162.417 81.615)">
          <path id="패스_1014" data-name="패스 1014" class="cls-4" d="M2.455,0V4.631A1.867,1.867,0,0,1,.415,6.744,1.86,1.86,0,0,1-1.626,4.631V0H-.253V4.678c0,.572.3.8.705.8s.617-.228.617-.8V0Z" transform="translate(1.626)"/>
        </g>
        <g id="그룹_743" data-name="그룹 743" transform="translate(167.311 81.614)">
          <path id="패스_1015" data-name="패스 1015" class="cls-4" d="M2,3.929H.632c-1.293,0-1.958-.67-1.958-2.066V-.524c0-1.4.665-2.078,1.958-2.078H1.907v1.29H.7c-.407,0-.635.264-.635.858V1.815c0,.572.146.821.693.821H2Z" transform="translate(1.326 2.602)"/>
        </g>
        <g id="그룹_744" data-name="그룹 744" transform="translate(171.416 79.743)">
          <path id="패스_1016" data-name="패스 1016" class="cls-4" d="M.926,2.7,2.492.084h1.5l-1.8,2.924a1.908,1.908,0,0,1,.264.4l1.707,3.2H2.572L1.295,4.248c-.105-.213-.153-.321-.379-.321H.783V6.615h-1.4v-8.4h1.4V2.7Z" transform="translate(0.613 1.788)"/>
        </g>
        <g id="그룹_745" data-name="그룹 745" transform="translate(0.001 45.71)">
          <path id="패스_1017" data-name="패스 1017" class="cls-4" d="M5.79,15.65a.425.425,0,0,1-.424-.424V-5.064H-3.411a.424.424,0,0,1-.424-.427v-4.45a.422.422,0,0,1,.424-.424H20.17a.424.424,0,0,1,.424.424v4.45a.426.426,0,0,1-.424.427H11.39v20.29a.425.425,0,0,1-.424.424Z" transform="translate(3.835 10.365)"/>
        </g>
        <g id="그룹_746" data-name="그룹 746" transform="translate(27.654 45.707)">
          <path id="패스_1018" data-name="패스 1018" class="cls-4" d="M11.463,15.652a.423.423,0,0,1-.422-.424V5.3H-1.566v9.932a.426.426,0,0,1-.427.424H-7.168a.425.425,0,0,1-.424-.424V-9.939a.426.426,0,0,1,.424-.427h5.175a.426.426,0,0,1,.427.427V-.008H11.042V-9.939a.424.424,0,0,1,.422-.427h5.178a.427.427,0,0,1,.424.427V15.228a.427.427,0,0,1-.424.424Z" transform="translate(7.592 10.366)"/>
        </g>
        <g id="그룹_747" data-name="그룹 747" transform="translate(162.691 45.71)">
          <path id="패스_1019" data-name="패스 1019" class="cls-4" d="M11.394,15.65a.426.426,0,0,1-.427-.424V-5.064H-1.522v20.29a.425.425,0,0,1-.424.424H-7.122a.425.425,0,0,1-.424-.424V-3.9a6.47,6.47,0,0,1,6.463-6.463H10.53A6.47,6.47,0,0,1,16.993-3.9V15.226a.425.425,0,0,1-.424.424Z" transform="translate(7.546 10.365)"/>
        </g>
        <g id="그룹_748" data-name="그룹 748" transform="translate(191.102 45.707)">
          <path id="패스_1020" data-name="패스 1020" class="cls-4" d="M3.888,15.652A6.469,6.469,0,0,1-2.575,9.191V-9.939a.426.426,0,0,1,.427-.427H3.025a.426.426,0,0,1,.427.427v20.29H17.125a.427.427,0,0,1,.424.427v4.45a.425.425,0,0,1-.424.424Z" transform="translate(2.575 10.366)"/>
        </g>
        <path id="패스_1021" data-name="패스 1021" class="cls-4" d="M102.6-7.411h12.778v-5.057H102.6Zm0,10.361h13.815V-2.107H102.6Zm.437,5.3a6.473,6.473,0,0,1-6.463-6.468V-11.3a6.472,6.472,0,0,1,6.463-6.466h11.9c3.564,0,6.463,2.445,6.463,5.447v3.539c0,1.521-2.224,3.029-2.246,3.045l-.929.615,1.019.449c.033.015,3.173,1.438,3.19,3.905V1.786a6.472,6.472,0,0,1-6.46,6.468Z" transform="translate(145.819 63.475)"/>
        <path id="패스_1022" data-name="패스 1022" class="cls-4" d="M91.172,2.95H103.95V-2.107H91.172Zm.439,5.3a6.473,6.473,0,0,1-6.465-6.468V-.943a6.475,6.475,0,0,1,6.465-6.468H103.95v-5.055H87.172a.424.424,0,0,1-.427-.424v-4.453a.43.43,0,0,1,.427-.427h16.342a6.474,6.474,0,0,1,6.463,6.466V1.786a6.474,6.474,0,0,1-6.463,6.468Z" transform="translate(128.563 63.475)"/>
        <path id="패스_1023" data-name="패스 1023" class="cls-4" d="M59.416,2.95H72.194V-2.107H59.416Zm.437,5.3A6.473,6.473,0,0,1,53.39,1.786V-.943a6.474,6.474,0,0,1,6.463-6.468H72.194v-5.055H55.413a.425.425,0,0,1-.424-.424v-4.453a.431.431,0,0,1,.424-.427H71.758A6.472,6.472,0,0,1,78.221-11.3V1.786a6.473,6.473,0,0,1-6.463,6.468Z" transform="translate(80.614 63.475)"/>
        <path id="패스_1024" data-name="패스 1024" class="cls-4" d="M28.4-7.411H41.182v-5.057H28.4Zm.437,15.664a6.474,6.474,0,0,1-6.463-6.468V-11.3a6.474,6.474,0,0,1,6.463-6.466h11.9A6.472,6.472,0,0,1,47.209-11.3V-8.57A6.472,6.472,0,0,1,40.746-2.1H28.4V2.95H45.186a.423.423,0,0,1,.422.424V7.827a.427.427,0,0,1-.422.427Z" transform="translate(33.789 63.475)"/>
        <g id="그룹_749" data-name="그룹 749" transform="translate(93.195 45.458)">
          <path id="패스_1025" data-name="패스 1025" class="cls-4" d="M18.708,15.955a.68.68,0,0,1-.678-.68V-4.762H9.351V15.275a.679.679,0,0,1-.678.68H3.5a.679.679,0,0,1-.678-.68V-4.762H-5.859V15.275a.679.679,0,0,1-.678.68h-5.175a.679.679,0,0,1-.678-.68V-3.855a6.722,6.722,0,0,1,6.717-6.712H1.59l.254.018h.1c2.422,0,3.8,3.087,3.815,3.117l.3.668L6.4-7.4c.073-.128,1.79-3.162,4.189-3.162h7.259a6.722,6.722,0,0,1,6.717,6.712V15.275a.681.681,0,0,1-.68.68Z" transform="translate(12.39 10.567)"/>
        </g>
      </g>
    </g>
  </g>
</svg>
